<svg width="153" height="200" viewBox="0 0 153 200" fill="none" xmlns="http://www.w3.org/2000/svg">
<path d="M11.0854 167.336C11.2485 167.331 11.4073 167.282 11.5452 167.194L132.711 97.1806C133.208 96.8538 133.622 96.416 133.92 95.9017C134.218 95.3874 134.393 94.8108 134.43 94.2174V2.69035C134.43 2.04679 134.161 1.66489 133.723 1.66489C133.472 1.67175 133.228 1.74497 133.015 1.87706L11.8423 71.8625C11.3454 72.1909 10.9315 72.63 10.6332 73.1455C10.3349 73.6609 10.1603 74.2385 10.1233 74.8328V165.879C10.1166 166.25 10.22 166.614 10.4204 166.926C10.4884 167.044 10.5848 167.143 10.7009 167.215C10.817 167.287 10.9492 167.328 11.0854 167.336Z" fill="#F5F7FA"/>
<path d="M8.22032 166.148C8.42547 166.254 9.88275 167.081 10.5194 167.449C10.2853 167.261 10.0992 167.02 9.97622 166.745C9.85326 166.471 9.79699 166.172 9.812 165.872V80.936L7.41387 79.5216V164.507C7.39279 164.827 7.45618 165.147 7.59771 165.435C7.73924 165.723 7.95394 165.969 8.22032 166.148Z" fill="#F5F7FA"/>
<path d="M133.708 1.98311C134.062 1.98311 134.111 2.42158 134.111 2.69032V94.2104C134.075 94.7484 133.915 95.2709 133.646 95.7379C133.376 96.2049 133.003 96.6041 132.555 96.9048L11.3894 166.919C11.2977 166.975 11.1929 167.007 11.0853 167.011C10.7528 167.011 10.4627 166.494 10.4627 165.9V74.8116C10.4957 74.2727 10.6535 73.7488 10.9236 73.2812C11.1936 72.8136 11.5686 72.4151 12.019 72.1171L133.185 2.15284C133.341 2.05122 133.522 1.99268 133.708 1.98311ZM133.708 1.35369C133.412 1.36169 133.124 1.44966 132.873 1.60829L11.7007 71.5655C11.1564 71.9221 10.7037 72.4017 10.3793 72.9656C10.0548 73.5296 9.86772 74.1619 9.83313 74.8116V165.879C9.83313 166.82 10.3566 167.626 11.0853 167.626C11.3055 167.622 11.5206 167.558 11.7078 167.442L132.866 97.4282C133.414 97.0751 133.869 96.5976 134.196 96.0346C134.524 95.4716 134.713 94.8392 134.748 94.1891V2.69032C134.748 1.84167 134.324 1.35369 133.708 1.35369Z" fill="#E0E0E0"/>
<path d="M134.742 2.64789V8.92084L9.83392 81.0562L7.43579 79.6418V73.475C7.46246 72.8124 7.6572 72.1675 8.00172 71.6009C8.31589 71.0429 8.76607 70.5733 9.31043 70.2359L130.476 0.250449C130.672 0.10952 130.903 0.0245325 131.143 0.00459918C131.384 -0.0153341 131.625 0.0305379 131.841 0.137295C132.188 0.349458 133.829 1.28297 134.162 1.4527C134.214 1.47741 134.262 1.5109 134.303 1.55172C134.36 1.59355 134.41 1.64361 134.452 1.70023C134.5 1.75843 134.54 1.82261 134.572 1.89118C134.616 1.96071 134.647 2.03729 134.664 2.11748C134.691 2.20031 134.71 2.28558 134.721 2.37208C134.736 2.46321 134.743 2.55551 134.742 2.64789Z" fill="#4CAF4F"/>
<path opacity="0.15" d="M134.742 2.64789V8.92084L9.83392 81.0562L7.43579 79.6418V73.475C7.46246 72.8124 7.6572 72.1675 8.00172 71.6009C8.31589 71.0429 8.76607 70.5733 9.31043 70.2359L130.476 0.250449C130.672 0.10952 130.903 0.0245325 131.143 0.00459918C131.384 -0.0153341 131.625 0.0305379 131.841 0.137295C132.188 0.349458 133.829 1.28297 134.162 1.4527C134.214 1.47741 134.262 1.5109 134.303 1.55172C134.36 1.59355 134.41 1.64361 134.452 1.70023C134.5 1.75843 134.54 1.82261 134.572 1.89118C134.616 1.96071 134.647 2.03729 134.664 2.11748C134.691 2.20031 134.71 2.28558 134.721 2.37208C134.736 2.46321 134.743 2.55551 134.742 2.64789Z" fill="#103E13"/>
<path d="M134.741 2.64793V8.92088L9.83313 81.0563V74.8611C9.8383 74.4618 9.91497 74.0666 10.0595 73.6942C10.0806 73.6287 10.1066 73.5649 10.1373 73.5033C10.2107 73.328 10.2958 73.1579 10.392 72.9941C10.7044 72.4287 11.1577 71.9537 11.7078 71.615L132.866 1.60833C133.069 1.45633 133.312 1.3695 133.565 1.35939C133.818 1.34929 134.068 1.41638 134.281 1.55175C134.338 1.59359 134.388 1.64364 134.43 1.70026C134.478 1.75847 134.518 1.82265 134.55 1.89121C134.594 1.96074 134.625 2.03732 134.642 2.11752C134.669 2.20035 134.688 2.28562 134.699 2.37211C134.721 2.46261 134.735 2.55491 134.741 2.64793Z" fill="#4CAF4F"/>
<path d="M122.199 10.1655C121.827 10.4608 121.529 10.8377 121.326 11.2669C121.124 11.6962 121.023 12.1663 121.031 12.6407C121.031 13.6379 121.555 14.14 122.199 13.7652C122.57 13.4699 122.869 13.093 123.071 12.6638C123.274 12.2345 123.374 11.7645 123.366 11.29C123.331 10.3352 122.807 9.79069 122.199 10.1655Z" fill="#F5F7FA"/>
<path d="M126.372 7.73275C126 8.02732 125.701 8.40406 125.498 8.83348C125.296 9.2629 125.195 9.73334 125.205 10.208C125.205 11.1981 125.729 11.7073 126.372 11.3324C126.746 11.0382 127.046 10.6617 127.25 10.2324C127.453 9.80299 127.555 9.33236 127.547 8.85721C127.547 7.86005 127.023 7.35793 126.372 7.73275Z" fill="#F5F7FA"/>
<path d="M130.589 5.29283C130.215 5.58705 129.915 5.96354 129.711 6.39292C129.508 6.82229 129.406 7.29292 129.414 7.76807C129.414 8.76524 129.938 9.26736 130.589 8.89961C130.96 8.60395 131.258 8.227 131.46 7.79783C131.663 7.36867 131.764 6.89877 131.756 6.42437C131.756 5.42721 131.232 4.92508 130.589 5.29283Z" fill="#F5F7FA"/>
<path d="M132.873 1.60831L11.7078 71.5655C11.1538 71.917 10.6985 72.4038 10.3849 72.9799L8.008 71.5655C8.31537 71.003 8.76396 70.5301 9.30963 70.1935L130.475 0.250472C130.671 0.109542 130.902 0.0245554 131.142 0.00462207C131.383 -0.0153112 131.624 0.0305608 131.841 0.137318C132.173 0.342409 133.729 1.22642 134.126 1.43858C133.919 1.36392 133.697 1.34037 133.479 1.36992C133.261 1.39948 133.053 1.48126 132.873 1.60831Z" fill="#4CAF4F"/>
<g opacity="0.5">
<path opacity="0.5" d="M132.873 1.60831L11.7078 71.5655C11.1538 71.917 10.6985 72.4038 10.3849 72.9799L8.008 71.5655C8.31537 71.003 8.76396 70.5301 9.30963 70.1935L130.475 0.250472C130.671 0.109542 130.902 0.0245554 131.142 0.00462207C131.383 -0.0153112 131.624 0.0305608 131.841 0.137318C132.173 0.342409 133.729 1.22642 134.126 1.43858C133.919 1.36392 133.697 1.34037 133.479 1.36992C133.261 1.39948 133.053 1.48126 132.873 1.60831Z" fill="white"/>
</g>
<path d="M40.1386 84.0548C40.0936 84.0548 40.0504 84.037 40.0186 84.0051C39.9868 83.9733 39.9689 83.9301 39.9689 83.8851V76.7494C39.9689 76.7044 39.9868 76.6612 40.0186 76.6294C40.0504 76.5975 40.0936 76.5796 40.1386 76.5796C40.1606 76.5796 40.1824 76.584 40.2026 76.5927C40.2228 76.6013 40.2411 76.6139 40.2563 76.6297C40.2715 76.6456 40.2833 76.6644 40.2911 76.6849C40.2988 76.7055 40.3023 76.7274 40.3014 76.7494V83.8851C40.3023 83.9071 40.2988 83.929 40.2911 83.9495C40.2833 83.9701 40.2715 83.9889 40.2563 84.0047C40.2411 84.0206 40.2228 84.0332 40.2026 84.0418C40.1824 84.0504 40.1606 84.0549 40.1386 84.0548Z" fill="#455A64"/>
<path d="M39.5373 83.2133L40.1103 83.7861L40.6762 83.2133V83.7013L40.1103 84.267L39.5373 83.7013V83.2133Z" fill="#455A64"/>
<path d="M46.1729 84.8328C46.1425 84.8347 46.1123 84.8277 46.0859 84.8126C46.0595 84.7975 46.0381 84.775 46.0243 84.7479C46.0131 84.729 46.0059 84.708 46.0031 84.6862C46.0002 84.6645 46.0018 84.6423 46.0078 84.6212C46.0137 84.6 46.0239 84.5803 46.0377 84.5632C46.0515 84.5461 46.0686 84.5319 46.088 84.5216L50.7852 81.8059C50.8047 81.7946 50.8262 81.7873 50.8485 81.7844C50.8709 81.7814 50.8935 81.783 50.9153 81.7889C50.937 81.7948 50.9573 81.805 50.9751 81.8189C50.9928 81.8327 51.0076 81.8499 51.0187 81.8696C51.0393 81.9082 51.0442 81.9534 51.0324 81.9955C51.0205 82.0377 50.9928 82.0737 50.955 82.0959L46.2507 84.8116C46.2274 84.826 46.2003 84.8334 46.1729 84.8328Z" fill="#455A64"/>
<path d="M50.573 82.7819L50.7852 82.004L50.0071 81.7918L50.4245 81.5514L51.2026 81.7565L50.9975 82.5344L50.573 82.7819Z" fill="#455A64"/>
<path d="M45.3028 122.322C45.2724 122.324 45.2422 122.317 45.2158 122.302C45.1894 122.287 45.168 122.264 45.1542 122.237C45.143 122.218 45.1358 122.197 45.133 122.175C45.1301 122.154 45.1317 122.131 45.1377 122.11C45.1436 122.089 45.1538 122.069 45.1676 122.052C45.1814 122.035 45.1985 122.021 45.2179 122.011L49.9151 119.295C49.9548 119.274 50.001 119.269 50.0444 119.281C50.0878 119.293 50.125 119.32 50.1485 119.359C50.1679 119.399 50.1722 119.444 50.1605 119.487C50.1488 119.53 50.1219 119.568 50.0849 119.592L45.3806 122.301C45.3572 122.315 45.3302 122.323 45.3028 122.322Z" fill="#455A64"/>
<path d="M49.7029 120.271L49.9151 119.493L49.137 119.288L49.5543 119.041L50.3325 119.253L50.1273 120.031L49.7029 120.271Z" fill="#455A64"/>
<path d="M62.3585 112.478C62.3293 112.478 62.3006 112.471 62.2755 112.456C62.2505 112.441 62.2302 112.419 62.217 112.393C62.2047 112.374 62.1966 112.353 62.1932 112.331C62.1898 112.309 62.1911 112.287 62.1972 112.265C62.2032 112.244 62.2138 112.224 62.2282 112.207C62.2426 112.19 62.2605 112.176 62.2807 112.166L66.9779 109.451C66.9965 109.439 67.0175 109.43 67.0396 109.427C67.0616 109.424 67.0841 109.425 67.1056 109.431C67.1271 109.437 67.147 109.448 67.164 109.462C67.181 109.476 67.1947 109.494 67.2042 109.514C67.2157 109.533 67.2233 109.554 67.2267 109.575C67.23 109.597 67.2291 109.618 67.2238 109.64C67.2185 109.661 67.2091 109.68 67.196 109.698C67.1829 109.715 67.1665 109.73 67.1477 109.741L62.4434 112.456C62.4174 112.471 62.3881 112.478 62.3585 112.478Z" fill="#455A64"/>
<path d="M66.7657 110.427L66.9779 109.649L66.1998 109.437L66.6171 109.196L67.3953 109.401L67.1831 110.179L66.7657 110.427Z" fill="#455A64"/>
<path d="M63.4833 74.8541C63.4541 74.8546 63.4254 74.8469 63.4004 74.8319C63.3754 74.8169 63.3551 74.7952 63.3418 74.7692C63.3304 74.7507 63.3227 74.7301 63.3194 74.7086C63.316 74.6871 63.317 74.6652 63.3223 74.6441C63.3276 74.623 63.337 74.6032 63.3501 74.5858C63.3632 74.5684 63.3796 74.5538 63.3984 74.5429L68.1027 71.8272C68.1216 71.816 68.1426 71.8088 68.1644 71.806C68.1862 71.8031 68.2083 71.8047 68.2295 71.8107C68.2506 71.8166 68.2704 71.8268 68.2875 71.8406C68.3046 71.8544 68.3188 71.8715 68.3291 71.8909C68.3405 71.9093 68.3482 71.93 68.3515 71.9514C68.3549 71.9729 68.3539 71.9949 68.3486 72.016C68.3433 72.0371 68.3339 72.0569 68.3208 72.0743C68.3077 72.0917 68.2913 72.1062 68.2725 72.1172L63.5682 74.8329C63.5419 74.8464 63.5129 74.8537 63.4833 74.8541Z" fill="#455A64"/>
<path d="M67.8621 72.8032L68.0744 72.0253L67.2962 71.8131L67.7136 71.5726L68.4917 71.7777L68.2795 72.5627L67.8621 72.8032Z" fill="#455A64"/>
<path d="M63.1508 93.7083C63.1214 93.7093 63.0923 93.7027 63.0662 93.689C63.0402 93.6754 63.0181 93.6552 63.0022 93.6305C62.9909 93.611 62.9836 93.5895 62.9806 93.5672C62.9777 93.5449 62.9792 93.5222 62.9852 93.5005C62.9911 93.4788 63.0013 93.4584 63.0151 93.4407C63.029 93.423 63.0463 93.4081 63.0659 93.3971L67.7631 90.6814C67.8025 90.6589 67.8492 90.653 67.893 90.6649C67.9368 90.6769 67.9741 90.7057 67.9966 90.7451C68.0191 90.7845 68.025 90.8312 68.0131 90.875C68.0011 90.9187 67.9723 90.956 67.9329 90.9785L63.2286 93.6871C63.2053 93.7016 63.1782 93.7089 63.1508 93.7083Z" fill="#455A64"/>
<path d="M63.4408 92.7182L63.2357 93.4961L64.0138 93.7012L63.5965 93.9417L62.8183 93.7366L63.0235 92.9587L63.4408 92.7182Z" fill="#455A64"/>
<path d="M62.8466 128.772C62.8175 128.772 62.7887 128.765 62.7637 128.75C62.7387 128.735 62.7184 128.713 62.7051 128.687C62.6889 128.667 62.6776 128.644 62.6723 128.619C62.6671 128.595 62.668 128.569 62.6749 128.544C62.6819 128.52 62.6948 128.498 62.7124 128.479C62.7299 128.461 62.7518 128.447 62.7759 128.439L67.1618 125.9C67.2005 125.88 67.2456 125.875 67.2878 125.887C67.33 125.899 67.366 125.926 67.3882 125.964C67.3997 125.983 67.4073 126.003 67.4107 126.025C67.414 126.046 67.413 126.068 67.4077 126.089C67.4025 126.11 67.393 126.13 67.3799 126.148C67.3669 126.165 67.3504 126.179 67.3316 126.19L62.9386 128.729C62.9123 128.751 62.8805 128.766 62.8466 128.772Z" fill="#455A64"/>
<path d="M63.1438 127.775L62.9315 128.552L63.7097 128.765L63.2923 129.005L62.5142 128.793L62.7264 128.015L63.1438 127.775Z" fill="#455A64"/>
<path d="M46.2506 103.461C46.2215 103.461 46.1927 103.454 46.1677 103.439C46.1427 103.424 46.1224 103.402 46.1092 103.376C46.0977 103.357 46.0901 103.337 46.0867 103.315C46.0834 103.294 46.0844 103.272 46.0896 103.251C46.0949 103.23 46.1044 103.21 46.1174 103.192C46.1305 103.175 46.1469 103.16 46.1658 103.15L50.8701 100.434C50.9087 100.413 50.9539 100.408 50.9961 100.42C51.0382 100.432 51.0742 100.46 51.0964 100.498C51.1078 100.517 51.1151 100.538 51.118 100.561C51.1209 100.583 51.1194 100.606 51.1135 100.628C51.1076 100.649 51.0974 100.67 51.0835 100.687C51.0697 100.705 51.0524 100.72 51.0328 100.731L46.3355 103.439L46.2506 103.461Z" fill="#455A64"/>
<path d="M46.5477 102.471L46.3355 103.249L47.1137 103.454L46.6963 103.694L45.9182 103.489L46.1304 102.711L46.5477 102.471Z" fill="#455A64"/>
<path d="M72.9909 81.226C72.9459 81.226 72.9027 81.2081 72.8709 81.1763C72.8391 81.1445 72.8212 81.1013 72.8212 81.0563V75.6178C72.8212 75.5728 72.8391 75.5296 72.8709 75.4978C72.9027 75.466 72.9459 75.4481 72.9909 75.4481C73.036 75.4481 73.0792 75.466 73.111 75.4978C73.1428 75.5296 73.1607 75.5728 73.1607 75.6178V81.0563C73.1607 81.1013 73.1428 81.1445 73.111 81.1763C73.0792 81.2081 73.036 81.226 72.9909 81.226Z" fill="#455A64"/>
<path d="M72.425 80.3915L72.9909 80.9573L73.5639 80.3915V80.8724L72.9909 81.4382L72.425 80.8724V80.3915Z" fill="#455A64"/>
<path d="M40.1387 115.978C40.111 115.987 40.0815 115.987 40.0538 115.978C40.0278 115.965 40.0061 115.945 39.991 115.92C39.976 115.895 39.9684 115.866 39.9689 115.837V111.834C39.9689 111.789 39.9868 111.746 40.0186 111.714C40.0505 111.682 40.0936 111.664 40.1387 111.664C40.1607 111.664 40.1824 111.669 40.2026 111.677C40.2228 111.686 40.2411 111.699 40.2563 111.714C40.2715 111.73 40.2833 111.749 40.2911 111.77C40.2988 111.79 40.3023 111.812 40.3014 111.834V115.54L72.8424 96.7564V94.267C72.8424 94.222 72.8603 94.1788 72.8921 94.147C72.924 94.1152 72.9671 94.0973 73.0122 94.0973C73.0572 94.0973 73.1004 94.1152 73.1322 94.147C73.1641 94.1788 73.182 94.222 73.182 94.267V96.8554C73.181 96.8842 73.1727 96.9124 73.1579 96.9371C73.143 96.9619 73.1221 96.9824 73.0971 96.9968L40.2094 115.978C40.1862 115.984 40.1619 115.984 40.1387 115.978Z" fill="#455A64"/>
<path d="M40.6762 112.478L40.1103 111.912L39.5373 112.478V111.997L40.1103 111.424L40.6762 111.997V112.478Z" fill="#455A64"/>
<path d="M40.1387 134.543C40.111 134.551 40.0815 134.551 40.0538 134.543C40.0267 134.529 40.0042 134.507 39.9891 134.481C39.974 134.455 39.967 134.424 39.9689 134.394V131.813C39.9689 131.768 39.9868 131.725 40.0187 131.693C40.0505 131.661 40.0937 131.643 40.1387 131.643C40.1607 131.643 40.1824 131.647 40.2027 131.656C40.2229 131.665 40.2411 131.677 40.2563 131.693C40.2715 131.709 40.2834 131.728 40.2911 131.748C40.2989 131.769 40.3024 131.791 40.3014 131.813V134.097L72.8424 115.314V111.396C72.8424 111.351 72.8603 111.307 72.8921 111.276C72.924 111.244 72.9672 111.226 73.0122 111.226C73.0572 111.226 73.1004 111.244 73.1323 111.276C73.1641 111.307 73.182 111.351 73.182 111.396V115.398C73.181 115.427 73.1727 115.455 73.1579 115.48C73.143 115.505 73.1221 115.525 73.0971 115.54L40.1882 134.521C40.1732 134.532 40.1564 134.539 40.1387 134.543Z" fill="#455A64"/>
<path d="M73.5639 112.06L72.9909 111.495L72.425 112.06V111.58L72.9909 111.014L73.5639 111.58V112.06Z" fill="#455A64"/>
<path d="M32.5835 129.663C32.5555 129.669 32.5265 129.669 32.4986 129.663C32.4726 129.648 32.451 129.626 32.4361 129.6C32.4211 129.574 32.4134 129.544 32.4137 129.514V111.183C32.4147 111.155 32.423 111.127 32.4378 111.102C32.4527 111.077 32.4736 111.056 32.4986 111.042L34.2813 110.01C34.3145 109.994 34.3517 109.99 34.3873 109.998C34.423 110.006 34.4553 110.025 34.4793 110.052C34.4907 110.071 34.498 110.093 34.5009 110.115C34.5039 110.138 34.5023 110.16 34.4964 110.182C34.4905 110.204 34.4803 110.224 34.4664 110.242C34.4526 110.26 34.4353 110.274 34.4157 110.285L32.725 111.261V129.182L34.5925 128.107C34.6116 128.09 34.6341 128.078 34.6583 128.072C34.6826 128.065 34.7081 128.064 34.7329 128.068C34.7578 128.072 34.7813 128.082 34.8019 128.097C34.8225 128.111 34.8395 128.13 34.8519 128.152C34.8642 128.174 34.8715 128.199 34.8732 128.224C34.8749 128.249 34.871 128.274 34.8617 128.298C34.8525 128.321 34.8381 128.342 34.8197 128.359C34.8013 128.376 34.7793 128.389 34.7552 128.397L32.633 129.62C32.619 129.637 32.6023 129.652 32.5835 129.663Z" fill="#455A64"/>
<path d="M34.4086 129.104L34.6137 128.326L33.8356 128.114L34.26 127.874L35.0311 128.086L34.8259 128.857L34.4086 129.104Z" fill="#455A64"/>
<path d="M79.3647 119.246C79.3355 119.246 79.3068 119.238 79.2818 119.223C79.2568 119.208 79.2365 119.187 79.2232 119.161C79.2119 119.141 79.2046 119.12 79.2016 119.097C79.1987 119.075 79.2002 119.052 79.2062 119.031C79.2121 119.009 79.2223 118.989 79.2361 118.971C79.25 118.953 79.2673 118.938 79.2869 118.927L81.0554 117.909V101.714L79.5274 102.591C79.5089 102.602 79.4883 102.61 79.4668 102.613C79.4453 102.617 79.4234 102.616 79.4023 102.61C79.3812 102.605 79.3613 102.596 79.3439 102.583C79.3266 102.57 79.312 102.553 79.301 102.534C79.2894 102.515 79.2817 102.494 79.2782 102.472C79.2748 102.45 79.2757 102.428 79.281 102.406C79.2862 102.384 79.2957 102.364 79.3088 102.346C79.322 102.328 79.3386 102.312 79.3576 102.301L81.1403 101.275C81.1663 101.261 81.1955 101.254 81.2252 101.254C81.2549 101.254 81.2841 101.261 81.3101 101.275C81.3348 101.291 81.355 101.313 81.3686 101.339C81.3823 101.365 81.3889 101.395 81.3879 101.424V118.001C81.3884 118.029 81.3814 118.057 81.3678 118.082C81.3541 118.107 81.3342 118.128 81.3101 118.142L79.4496 119.246C79.4218 119.253 79.3925 119.253 79.3647 119.246Z" fill="#455A64"/>
<path d="M79.6618 118.241L79.4566 119.019L80.2348 119.224L79.8103 119.472L79.0322 119.26L79.2444 118.482L79.6618 118.241Z" fill="#455A64"/>
<path d="M45.1825 69.3944C45.1825 71.2968 42.9117 74.1469 40.1104 75.7593C37.309 77.3718 35.0311 77.1737 35.0311 75.2431C35.0311 73.3124 37.3019 70.4906 40.1104 68.8782C42.9188 67.2658 45.1825 67.4921 45.1825 69.3944Z" fill="#4CAF4F"/>
<path d="M58.5777 134.288C61.1932 132.099 62.5023 129.356 61.5017 128.161C60.5012 126.966 57.5698 127.772 54.9544 129.96C52.3389 132.149 51.0297 134.892 52.0303 136.087C53.0309 137.282 55.9622 136.477 58.5777 134.288Z" fill="#4CAF4F"/>
<path d="M44.7297 88.5457L35.4838 93.878C35.2079 94.0336 34.9886 93.878 34.9886 93.4961V88.7366C34.9908 88.5499 35.0368 88.3662 35.1228 88.2004C35.2088 88.0346 35.3324 87.8913 35.4838 87.7819L44.7297 82.4707C45.0056 82.3152 45.2249 82.4707 45.2249 82.8526V87.6051C45.22 87.7893 45.1728 87.97 45.0869 88.1331C45.0011 88.2962 44.8789 88.4373 44.7297 88.5457Z" fill="#4CAF4F"/>
<path opacity="0.6" d="M44.7297 88.5457L35.4838 93.878C35.2079 94.0336 34.9886 93.878 34.9886 93.4961V88.7366C34.9908 88.5499 35.0368 88.3662 35.1228 88.2004C35.2088 88.0346 35.3324 87.8913 35.4838 87.7819L44.7297 82.4707C45.0056 82.3152 45.2249 82.4707 45.2249 82.8526V87.6051C45.22 87.7893 45.1728 87.97 45.0869 88.1331C45.0011 88.2962 44.8789 88.4373 44.7297 88.5457Z" fill="white"/>
<path d="M61.3611 78.9347L52.1647 84.26C51.8888 84.4226 51.6624 84.26 51.6624 83.8852V79.1256C51.6654 78.9383 51.7124 78.7542 51.7997 78.5884C51.8869 78.4226 52.012 78.2795 52.1647 78.1709L61.3611 72.8385C61.637 72.6759 61.8633 72.8385 61.8633 73.2134V77.9729C61.8614 78.1614 61.8149 78.3469 61.7277 78.514C61.6404 78.6812 61.5147 78.8253 61.3611 78.9347Z" fill="#4CAF4F"/>
<path opacity="0.6" d="M61.3611 78.9347L52.1647 84.26C51.8888 84.4226 51.6624 84.26 51.6624 83.8852V79.1256C51.6654 78.9383 51.7124 78.7542 51.7997 78.5884C51.8869 78.4226 52.012 78.2795 52.1647 78.1709L61.3611 72.8385C61.637 72.6759 61.8633 72.8385 61.8633 73.2134V77.9729C61.8614 78.1614 61.8149 78.3469 61.7277 78.514C61.6404 78.6812 61.5147 78.8253 61.3611 78.9347Z" fill="white"/>
<path d="M61.3611 97.605L52.1647 102.937C51.8888 103.1 51.6624 102.937 51.6624 102.563V97.803C51.666 97.6157 51.7132 97.4319 51.8004 97.2662C51.8876 97.1004 52.0124 96.9573 52.1647 96.8483L61.3611 91.5159C61.637 91.3532 61.8633 91.5159 61.8633 91.8907V96.6502C61.8603 96.8376 61.8133 97.0216 61.7261 97.1875C61.6388 97.3533 61.5138 97.4963 61.3611 97.605Z" fill="#4CAF4F"/>
<path opacity="0.6" d="M61.3611 97.605L52.1647 102.937C51.8888 103.1 51.6624 102.937 51.6624 102.563V97.803C51.666 97.6157 51.7132 97.4319 51.8004 97.2662C51.8876 97.1004 52.0124 96.9573 52.1647 96.8483L61.3611 91.5159C61.637 91.3532 61.8633 91.5159 61.8633 91.8907V96.6502C61.8603 96.8376 61.8133 97.0216 61.7261 97.1875C61.6388 97.3533 61.5138 97.4963 61.3611 97.605Z" fill="white"/>
<path d="M61.3611 115.922L52.1647 121.254C51.8888 121.41 51.6624 121.254 51.6624 120.872V116.113C51.666 115.925 51.7132 115.742 51.8004 115.576C51.8876 115.41 52.0124 115.267 52.1647 115.158L61.3611 109.826C61.637 109.67 61.8633 109.826 61.8633 110.208V114.96C61.8603 115.148 61.8133 115.333 61.7261 115.5C61.6389 115.667 61.5139 115.812 61.3611 115.922Z" fill="#4CAF4F"/>
<path opacity="0.6" d="M61.3611 115.922L52.1647 121.254C51.8888 121.41 51.6624 121.254 51.6624 120.872V116.113C51.666 115.925 51.7132 115.742 51.8004 115.576C51.8876 115.41 52.0124 115.267 52.1647 115.158L61.3611 109.826C61.637 109.67 61.8633 109.826 61.8633 110.208V114.96C61.8603 115.148 61.8133 115.333 61.7261 115.5C61.6389 115.667 61.5139 115.812 61.3611 115.922Z" fill="white"/>
<path d="M77.6316 106.551L68.3928 111.884C68.1169 112.046 67.8905 111.884 67.8905 111.509V106.749C67.8941 106.562 67.9413 106.378 68.0285 106.212C68.1157 106.047 68.2405 105.903 68.3928 105.794L77.6316 100.462C77.9075 100.299 78.1339 100.462 78.1339 100.837V105.596C78.1309 105.784 78.0838 105.968 77.9966 106.134C77.9093 106.3 77.7843 106.443 77.6316 106.551Z" fill="#4CAF4F"/>
<path opacity="0.6" d="M77.6316 106.551L68.3928 111.884C68.1169 112.046 67.8905 111.884 67.8905 111.509V106.749C67.8941 106.562 67.9413 106.378 68.0285 106.212C68.1157 106.047 68.2405 105.903 68.3928 105.794L77.6316 100.462C77.9075 100.299 78.1339 100.462 78.1339 100.837V105.596C78.1309 105.784 78.0838 105.968 77.9966 106.134C77.9093 106.3 77.7843 106.443 77.6316 106.551Z" fill="white"/>
<path d="M77.6315 123.128L68.3715 128.439C68.0956 128.602 67.8693 128.439 67.8693 128.065V123.305C67.8723 123.118 67.9193 122.934 68.0065 122.768C68.0938 122.602 68.2188 122.459 68.3715 122.35L77.6315 117.039C77.9074 116.876 78.1338 117.039 78.1338 117.414V122.173C78.1303 122.361 78.083 122.545 77.9958 122.71C77.9086 122.876 77.7839 123.019 77.6315 123.128Z" fill="#4CAF4F"/>
<path opacity="0.6" d="M77.6315 123.128L68.3715 128.439C68.0956 128.602 67.8693 128.439 67.8693 128.065V123.305C67.8723 123.118 67.9193 122.934 68.0065 122.768C68.0938 122.602 68.2188 122.459 68.3715 122.35L77.6315 117.039C77.9074 116.876 78.1338 117.039 78.1338 117.414V122.173C78.1303 122.361 78.083 122.545 77.9958 122.71C77.9086 122.876 77.7839 123.019 77.6315 123.128Z" fill="white"/>
<path d="M44.7297 107.223L35.4838 112.555C35.2079 112.718 34.9886 112.555 34.9886 112.174V107.421C34.9908 107.233 35.0367 107.049 35.1227 106.882C35.2086 106.715 35.3323 106.57 35.4838 106.459L44.7297 101.127C45.0056 100.971 45.2249 101.127 45.2249 101.509V106.268C45.2227 106.455 45.1768 106.639 45.0908 106.805C45.0048 106.97 44.8811 107.114 44.7297 107.223Z" fill="#4CAF4F"/>
<path opacity="0.6" d="M44.7297 107.223L35.4838 112.555C35.2079 112.718 34.9886 112.555 34.9886 112.174V107.421C34.9908 107.233 35.0367 107.049 35.1227 106.882C35.2086 106.715 35.3323 106.57 35.4838 106.459L44.7297 101.127C45.0056 100.971 45.2249 101.127 45.2249 101.509V106.268C45.2227 106.455 45.1768 106.639 45.0908 106.805C45.0048 106.97 44.8811 107.114 44.7297 107.223Z" fill="white"/>
<path d="M72.524 74.1752L68.6191 68.7226C68.4962 68.4203 68.4752 68.0861 68.5595 67.7709C68.6438 67.4556 68.8286 67.1765 69.086 66.9758L76.8675 62.4708C77.3627 62.1809 77.6386 62.8952 77.3344 63.6731L73.4295 73.6377C73.2244 74.2459 72.7645 74.5076 72.524 74.1752Z" fill="#455A64"/>
<path d="M76.9666 86.2968L73.3446 92.5414C73.1324 92.9021 72.8494 93.0718 72.6372 92.9516L69.0152 90.8865C68.6969 90.7027 68.6969 89.9742 69.0152 89.4226L72.6372 83.185C72.8494 82.8244 73.1324 82.6546 73.3446 82.7748L76.9666 84.8399C77.2849 85.0167 77.2849 85.7522 76.9666 86.2968Z" fill="#C8E6C9"/>
<path d="M44.0789 123.588L40.4641 129.854C40.2518 130.214 39.9618 130.384 39.7566 130.264L36.1347 128.199C35.8164 128.022 35.8164 127.287 36.1347 126.735L39.7566 120.497C39.9618 120.137 40.2518 119.967 40.4641 120.087L44.0789 122.152C44.3831 122.308 44.3831 123.043 44.0789 123.588Z" fill="#C8E6C9"/>
<path d="M26.4078 101.565C26.3786 101.565 26.3499 101.558 26.3241 101.544C26.2983 101.531 26.276 101.511 26.2592 101.488C26.2382 101.448 26.2331 101.402 26.2449 101.358C26.2567 101.315 26.2846 101.278 26.3229 101.254L37.2312 94.96C37.2502 94.9484 37.2714 94.9406 37.2934 94.9372C37.3155 94.9338 37.338 94.9347 37.3597 94.9399C37.3813 94.9452 37.4018 94.9547 37.4198 94.9678C37.4378 94.981 37.453 94.9976 37.4646 95.0166C37.4857 95.0563 37.4908 95.1025 37.479 95.1459C37.4672 95.1892 37.4393 95.2265 37.401 95.25L26.4927 101.565C26.4647 101.572 26.4357 101.572 26.4078 101.565Z" fill="#455A64"/>
<path d="M26.4077 103.178C26.3778 103.177 26.3485 103.169 26.3225 103.155C26.2965 103.14 26.2747 103.119 26.2592 103.093C26.2385 103.054 26.2336 103.009 26.2455 102.967C26.2573 102.925 26.2851 102.889 26.3228 102.867L37.2312 96.5655C37.2709 96.5444 37.3171 96.5393 37.3605 96.5511C37.4038 96.563 37.4411 96.5908 37.4646 96.6291C37.4853 96.6678 37.4902 96.7129 37.4783 96.7551C37.4664 96.7973 37.4387 96.8332 37.4009 96.8554L26.4926 103.157C26.4664 103.17 26.4373 103.177 26.4077 103.178Z" fill="#E0E0E0"/>
<path d="M26.4078 104.762C26.3781 104.76 26.3492 104.752 26.3235 104.737C26.2977 104.722 26.2757 104.702 26.2592 104.677C26.2382 104.637 26.2331 104.591 26.2449 104.548C26.2567 104.504 26.2846 104.467 26.3229 104.444L37.2312 98.1495C37.2507 98.1382 37.2722 98.1309 37.2945 98.128C37.3168 98.125 37.3395 98.1266 37.3613 98.1325C37.383 98.1384 37.4033 98.1486 37.4211 98.1625C37.4388 98.1763 37.4536 98.1936 37.4647 98.2132C37.4853 98.2518 37.4902 98.297 37.4784 98.3392C37.4665 98.3813 37.4388 98.4173 37.401 98.4395L26.4927 104.741L26.4078 104.762Z" fill="#E0E0E0"/>
<path d="M26.4078 106.339C26.3786 106.339 26.3499 106.332 26.3241 106.318C26.2983 106.305 26.276 106.285 26.2592 106.261C26.2382 106.222 26.2331 106.175 26.2449 106.132C26.2567 106.089 26.2846 106.051 26.3229 106.028L37.2312 99.7338C37.2502 99.7221 37.2714 99.7144 37.2934 99.7109C37.3155 99.7075 37.338 99.7084 37.3597 99.7137C37.3813 99.7189 37.4018 99.7284 37.4198 99.7416C37.4378 99.7547 37.453 99.7713 37.4646 99.7903C37.4857 99.8301 37.4908 99.8763 37.479 99.9196C37.4672 99.963 37.4393 100 37.401 100.024L26.4927 106.318C26.4664 106.331 26.4373 106.339 26.4078 106.339Z" fill="#E0E0E0"/>
<path d="M21.6114 83.086C21.5822 83.0865 21.5535 83.0789 21.5285 83.0638C21.5035 83.0488 21.4832 83.0271 21.4699 83.0011C21.4583 82.9821 21.4506 82.961 21.4471 82.9389C21.4437 82.9169 21.4446 82.8944 21.4498 82.8727C21.4551 82.851 21.4646 82.8306 21.4777 82.8126C21.4909 82.7946 21.5075 82.7793 21.5265 82.7677L32.4419 76.4736C32.4791 76.4618 32.5193 76.4631 32.5557 76.4775C32.592 76.4918 32.6223 76.5182 32.6414 76.5523C32.6605 76.5864 32.6673 76.626 32.6606 76.6645C32.6539 76.7029 32.6341 76.7379 32.6046 76.7635L21.6963 83.0648C21.67 83.0783 21.641 83.0856 21.6114 83.086Z" fill="#455A64"/>
<path d="M21.6114 84.6631C21.5831 84.6636 21.5551 84.6567 21.5303 84.643C21.5055 84.6294 21.4847 84.6095 21.4699 84.5853C21.4583 84.5663 21.4506 84.5452 21.4471 84.5231C21.4437 84.5011 21.4446 84.4786 21.4498 84.4569C21.4551 84.4352 21.4646 84.4148 21.4777 84.3968C21.4909 84.3788 21.5075 84.3636 21.5265 84.3519L32.4419 78.0578C32.4604 78.0463 32.481 78.0387 32.5025 78.0353C32.524 78.032 32.5459 78.033 32.567 78.0382C32.5882 78.0435 32.608 78.053 32.6254 78.066C32.6428 78.0791 32.6574 78.0955 32.6683 78.1143C32.6796 78.1338 32.6869 78.1553 32.6899 78.1776C32.6928 78.2 32.6913 78.2226 32.6853 78.2444C32.6794 78.2661 32.6692 78.2864 32.6554 78.3041C32.6415 78.3219 32.6242 78.3367 32.6046 78.3477L21.6963 84.6419C21.67 84.6555 21.641 84.6627 21.6114 84.6631Z" fill="#E0E0E0"/>
<path d="M21.6115 86.2472C21.5823 86.2477 21.5536 86.24 21.5286 86.225C21.5036 86.21 21.4833 86.1883 21.47 86.1623C21.4585 86.1438 21.4509 86.1232 21.4476 86.1017C21.4442 86.0802 21.4452 86.0583 21.4505 86.0372C21.4557 86.0161 21.4652 85.9963 21.4783 85.9789C21.4914 85.9615 21.5078 85.9469 21.5266 85.936L32.442 79.6418C32.4806 79.6212 32.5258 79.6163 32.568 79.6281C32.6102 79.64 32.6461 79.6677 32.6684 79.7055C32.6795 79.7244 32.6868 79.7454 32.6896 79.7672C32.6924 79.7889 32.6908 79.8111 32.6849 79.8322C32.6789 79.8534 32.6688 79.8731 32.655 79.8902C32.6412 79.9073 32.6241 79.9215 32.6047 79.9318L21.6964 86.233C21.6695 86.2441 21.6405 86.249 21.6115 86.2472Z" fill="#E0E0E0"/>
<path d="M21.6115 87.8314C21.5736 87.832 21.5366 87.8199 21.5064 87.7971C21.4762 87.7742 21.4545 87.742 21.4447 87.7054C21.4349 87.6688 21.4377 87.63 21.4525 87.5952C21.4674 87.5603 21.4934 87.5314 21.5266 87.5131L32.442 81.219C32.4609 81.2078 32.4819 81.2006 32.5037 81.1977C32.5255 81.1949 32.5476 81.1965 32.5688 81.2024C32.5899 81.2084 32.6096 81.2186 32.6268 81.2323C32.6439 81.2461 32.658 81.2632 32.6683 81.2826C32.6795 81.3015 32.6867 81.3225 32.6896 81.3443C32.6924 81.3661 32.6908 81.3882 32.6849 81.4094C32.6789 81.4305 32.6687 81.4502 32.655 81.4674C32.6412 81.4845 32.6241 81.4986 32.6047 81.5089L21.6964 87.8101L21.6115 87.8314Z" fill="#E0E0E0"/>
<path d="M51.3086 87.0323C51.2708 87.0329 51.2338 87.0208 51.2035 86.998C51.1733 86.9751 51.1516 86.9429 51.1418 86.9063C51.1321 86.8697 51.1348 86.8309 51.1497 86.7961C51.1645 86.7612 51.1906 86.7323 51.2237 86.714L62.1391 80.4198C62.1581 80.4087 62.1791 80.4014 62.2008 80.3986C62.2226 80.3958 62.2448 80.3974 62.2659 80.4033C62.2871 80.4093 62.3068 80.4194 62.3239 80.4332C62.341 80.447 62.3552 80.4641 62.3655 80.4835C62.3767 80.5024 62.3839 80.5234 62.3868 80.5452C62.3896 80.5669 62.388 80.5891 62.382 80.6102C62.3761 80.6314 62.3659 80.6511 62.3521 80.6682C62.3384 80.6853 62.3212 80.6995 62.3018 80.7098L51.3935 87.004C51.3693 87.0228 51.3393 87.0328 51.3086 87.0323Z" fill="#455A64"/>
<path d="M51.3087 88.6093C51.2795 88.6098 51.2508 88.6022 51.2258 88.5872C51.2008 88.5722 51.1805 88.5504 51.1672 88.5245C51.1558 88.506 51.1481 88.4854 51.1448 88.4639C51.1414 88.4424 51.1424 88.4204 51.1477 88.3993C51.153 88.3782 51.1624 88.3584 51.1755 88.341C51.1886 88.3237 51.205 88.3091 51.2238 88.2981L62.1392 81.9969C62.1782 81.9789 62.2227 81.9764 62.2635 81.9899C62.3043 82.0033 62.3385 82.0318 62.3592 82.0695C62.3798 82.1072 62.3854 82.1514 62.3748 82.193C62.3641 82.2347 62.3381 82.2707 62.3019 82.2939L51.3936 88.5881L51.3087 88.6093Z" fill="#E0E0E0"/>
<path d="M51.3087 90.1934C51.2795 90.194 51.2508 90.1863 51.2258 90.1713C51.2008 90.1563 51.1805 90.1345 51.1672 90.1086C51.1558 90.0901 51.1481 90.0695 51.1448 90.048C51.1414 90.0265 51.1424 90.0045 51.1477 89.9834C51.153 89.9623 51.1624 89.9425 51.1755 89.9251C51.1886 89.9078 51.205 89.8932 51.2238 89.8822L62.1392 83.581C62.1779 83.5604 62.223 83.5554 62.2652 83.5673C62.3074 83.5792 62.3433 83.6069 62.3656 83.6447C62.3767 83.6636 62.384 83.6846 62.3868 83.7063C62.3897 83.7281 62.388 83.7503 62.3821 83.7714C62.3761 83.7926 62.366 83.8123 62.3522 83.8294C62.3384 83.8465 62.3213 83.8606 62.3019 83.871L51.3936 90.1722C51.3673 90.1858 51.3383 90.193 51.3087 90.1934Z" fill="#E0E0E0"/>
<path d="M51.3086 91.7776C51.2708 91.7782 51.2338 91.7662 51.2035 91.7433C51.1733 91.7205 51.1516 91.6882 51.1418 91.6516C51.1321 91.6151 51.1348 91.5762 51.1497 91.5414C51.1645 91.5066 51.1906 91.4777 51.2237 91.4594L62.1391 85.1652C62.1576 85.1537 62.1782 85.1461 62.1997 85.1428C62.2212 85.1394 62.2432 85.1404 62.2643 85.1457C62.2854 85.151 62.3052 85.1604 62.3226 85.1735C62.34 85.1866 62.3546 85.203 62.3655 85.2218C62.3768 85.2412 62.3842 85.2628 62.3871 85.2851C62.39 85.3074 62.3885 85.3301 62.3826 85.3518C62.3766 85.3735 62.3664 85.3938 62.3526 85.4116C62.3387 85.4293 62.3215 85.4441 62.3018 85.4552L51.3935 91.7493C51.3693 91.7682 51.3393 91.7782 51.3086 91.7776Z" fill="#E0E0E0"/>
<path d="M67.0911 59.9814C67.0619 59.982 67.0332 59.9743 67.0082 59.9593C66.9831 59.9443 66.9628 59.9226 66.9496 59.8966C66.9373 59.878 66.9292 59.8569 66.9258 59.8349C66.9224 59.8129 66.9237 59.7904 66.9298 59.7689C66.9358 59.7474 66.9464 59.7275 66.9608 59.7105C66.9752 59.6935 66.9931 59.6798 67.0133 59.6703L77.9216 53.369C77.9602 53.3484 78.0054 53.3435 78.0476 53.3553C78.0897 53.3672 78.1257 53.3949 78.1479 53.4327C78.1594 53.4512 78.167 53.4718 78.1704 53.4933C78.1737 53.5148 78.1727 53.5367 78.1675 53.5578C78.1622 53.5789 78.1527 53.5987 78.1396 53.6161C78.1266 53.6335 78.1101 53.6481 78.0913 53.659L67.176 59.9602C67.15 59.9746 67.1207 59.9819 67.0911 59.9814Z" fill="#455A64"/>
<path d="M67.0911 61.5656C67.0622 61.5646 67.0341 61.5563 67.0093 61.5415C66.9846 61.5266 66.964 61.5057 66.9496 61.4807C66.9295 61.4412 66.9257 61.3955 66.9389 61.3532C66.9521 61.3109 66.9813 61.2754 67.0203 61.2544L77.9286 54.9602C77.9473 54.948 77.9683 54.9399 77.9903 54.9365C78.0124 54.933 78.0349 54.9344 78.0564 54.9404C78.0778 54.9465 78.0977 54.957 78.1148 54.9714C78.1318 54.9858 78.1455 55.0037 78.155 55.0239C78.1665 55.0424 78.1741 55.063 78.1775 55.0845C78.1808 55.106 78.1798 55.1279 78.1745 55.149C78.1693 55.1701 78.1598 55.1899 78.1467 55.2073C78.1337 55.2247 78.1172 55.2393 78.0984 55.2502L67.183 61.5444C67.1699 61.5539 67.155 61.5607 67.1392 61.5644C67.1234 61.568 67.107 61.5684 67.0911 61.5656Z" fill="#E0E0E0"/>
<path d="M67.0911 63.1426C67.0619 63.1432 67.0332 63.1355 67.0082 63.1205C66.9832 63.1055 66.9629 63.0838 66.9496 63.0578C66.9384 63.0389 66.9312 63.0179 66.9284 62.9961C66.9255 62.9743 66.9271 62.9522 66.9331 62.931C66.939 62.9099 66.9492 62.8902 66.963 62.873C66.9768 62.8559 66.9939 62.8418 67.0133 62.8315L77.9216 56.5373C77.9401 56.5259 77.9607 56.5182 77.9822 56.5149C78.0037 56.5115 78.0256 56.5125 78.0467 56.5178C78.0678 56.5231 78.0877 56.5325 78.1051 56.5456C78.1224 56.5586 78.137 56.5751 78.1479 56.5939C78.1596 56.6129 78.1673 56.6341 78.1708 56.6561C78.1742 56.6781 78.1733 56.7006 78.168 56.7223C78.1628 56.744 78.1533 56.7644 78.1401 56.7824C78.127 56.8004 78.1104 56.8157 78.0914 56.8273L67.176 63.1214C67.15 63.1358 67.1208 63.1431 67.0911 63.1426Z" fill="#E0E0E0"/>
<path d="M67.0911 64.7268C67.0619 64.7274 67.0332 64.7197 67.0082 64.7047C66.9831 64.6897 66.9628 64.6679 66.9496 64.642C66.9373 64.6233 66.9292 64.6023 66.9258 64.5803C66.9224 64.5582 66.9237 64.5357 66.9298 64.5143C66.9358 64.4928 66.9464 64.4729 66.9608 64.4559C66.9752 64.4389 66.9931 64.4251 67.0133 64.4156L77.9216 58.1144C77.9602 58.0938 78.0054 58.0889 78.0476 58.1007C78.0897 58.1126 78.1257 58.1403 78.1479 58.1781C78.1594 58.1966 78.167 58.2172 78.1704 58.2386C78.1737 58.2601 78.1727 58.2821 78.1675 58.3032C78.1622 58.3243 78.1527 58.3441 78.1396 58.3615C78.1266 58.3789 78.1101 58.3934 78.0913 58.4044L67.176 64.7056C67.15 64.72 67.1207 64.7273 67.0911 64.7268Z" fill="#E0E0E0"/>
<path d="M77.2 77.69C77.1708 77.6905 77.1421 77.6828 77.117 77.6678C77.092 77.6528 77.0717 77.6311 77.0585 77.6051C77.0462 77.5865 77.0381 77.5654 77.0347 77.5434C77.0313 77.5214 77.0326 77.4989 77.0387 77.4774C77.0447 77.456 77.0553 77.4361 77.0697 77.419C77.0841 77.402 77.102 77.3883 77.1221 77.3788L88.0305 71.0775C88.0699 71.055 88.1166 71.0491 88.1604 71.061C88.2041 71.073 88.2414 71.1018 88.2639 71.1412C88.2864 71.1806 88.2924 71.2273 88.2804 71.2711C88.2685 71.3148 88.2396 71.3521 88.2002 71.3746L77.2848 77.6688C77.2589 77.6831 77.2296 77.6904 77.2 77.69Z" fill="#455A64"/>
<path d="M77.2 79.2742C77.1708 79.2747 77.1421 79.267 77.1171 79.252C77.092 79.237 77.0717 79.2153 77.0585 79.1893C77.0472 79.1698 77.0398 79.1483 77.0369 79.126C77.034 79.1037 77.0355 79.081 77.0414 79.0593C77.0474 79.0376 77.0576 79.0172 77.0714 78.9995C77.0853 78.9817 77.1025 78.9669 77.1222 78.9559L88.0305 72.6618C88.0491 72.6495 88.0701 72.6414 88.0922 72.638C88.1142 72.6345 88.1367 72.6359 88.1582 72.6419C88.1797 72.648 88.1996 72.6585 88.2166 72.673C88.2336 72.6874 88.2473 72.7052 88.2568 72.7254C88.2683 72.7439 88.2759 72.7645 88.2793 72.786C88.2826 72.8075 88.2816 72.8294 88.2764 72.8505C88.2711 72.8716 88.2616 72.8914 88.2486 72.9088C88.2355 72.9262 88.2191 72.9408 88.2002 72.9517L77.2849 79.2529C77.2589 79.2673 77.2296 79.2746 77.2 79.2742Z" fill="#E0E0E0"/>
<path d="M77.2 80.8512C77.1717 80.8517 77.1437 80.8447 77.1189 80.8311C77.0941 80.8175 77.0733 80.7976 77.0585 80.7734C77.0472 80.754 77.0398 80.7324 77.0369 80.7101C77.034 80.6878 77.0355 80.6651 77.0414 80.6434C77.0474 80.6217 77.0576 80.6014 77.0714 80.5836C77.0853 80.5659 77.1025 80.5511 77.1222 80.54L88.0305 74.2459C88.049 74.2344 88.0696 74.2268 88.0911 74.2234C88.1126 74.2201 88.1345 74.2211 88.1556 74.2263C88.1767 74.2316 88.1965 74.2411 88.2139 74.2541C88.2313 74.2672 88.2459 74.2836 88.2568 74.3024C88.2685 74.3215 88.2762 74.3426 88.2797 74.3646C88.2831 74.3867 88.2822 74.4092 88.2769 74.4309C88.2717 74.4525 88.2622 74.4729 88.249 74.491C88.2359 74.509 88.2193 74.5242 88.2002 74.5358L77.2849 80.83C77.2589 80.8443 77.2296 80.8517 77.2 80.8512Z" fill="#E0E0E0"/>
<path d="M77.2 82.4707C77.1708 82.4713 77.1421 82.4636 77.117 82.4486C77.092 82.4336 77.0717 82.4118 77.0585 82.3859C77.0462 82.3672 77.0381 82.3462 77.0347 82.3242C77.0313 82.3021 77.0326 82.2796 77.0387 82.2582C77.0447 82.2367 77.0553 82.2168 77.0697 82.1998C77.0841 82.1828 77.102 82.169 77.1221 82.1595L88.0305 75.8583C88.0691 75.8377 88.1143 75.8327 88.1565 75.8446C88.1986 75.8565 88.2346 75.8842 88.2568 75.922C88.2683 75.9405 88.2759 75.961 88.2793 75.9825C88.2826 76.004 88.2816 76.026 88.2764 76.0471C88.2711 76.0682 88.2616 76.088 88.2486 76.1054C88.2355 76.1228 88.2191 76.1373 88.2002 76.1483L77.2848 82.4495C77.2589 82.4639 77.2296 82.4712 77.2 82.4707Z" fill="#E0E0E0"/>
<path d="M77.2 93.4184C77.1708 93.4189 77.1421 93.4112 77.117 93.3962C77.092 93.3812 77.0717 93.3595 77.0585 93.3335C77.0462 93.3149 77.0381 93.2938 77.0347 93.2718C77.0313 93.2498 77.0326 93.2273 77.0387 93.2058C77.0447 93.1844 77.0553 93.1644 77.0697 93.1474C77.0841 93.1304 77.102 93.1167 77.1221 93.1072L88.0305 86.8059C88.0691 86.7853 88.1143 86.7804 88.1565 86.7922C88.1986 86.8041 88.2346 86.8318 88.2568 86.8696C88.2683 86.8881 88.2759 86.9087 88.2793 86.9302C88.2826 86.9517 88.2816 86.9736 88.2764 86.9947C88.2711 87.0158 88.2616 87.0356 88.2486 87.053C88.2355 87.0704 88.2191 87.085 88.2002 87.0959L77.2848 93.3971C77.2589 93.4115 77.2296 93.4188 77.2 93.4184Z" fill="#455A64"/>
<path d="M77.2 95.0025C77.1711 95.0015 77.143 94.9932 77.1182 94.9784C77.0935 94.9635 77.0729 94.9426 77.0585 94.9176C77.0472 94.8981 77.0398 94.8766 77.0369 94.8543C77.034 94.832 77.0355 94.8093 77.0414 94.7876C77.0474 94.7659 77.0576 94.7455 77.0714 94.7278C77.0853 94.71 77.1025 94.6952 77.1222 94.6842L88.0305 88.39C88.0491 88.3778 88.0701 88.3697 88.0922 88.3662C88.1142 88.3628 88.1367 88.3642 88.1582 88.3702C88.1797 88.3762 88.1996 88.3868 88.2166 88.4012C88.2336 88.4156 88.2473 88.4335 88.2568 88.4537C88.2683 88.4722 88.2759 88.4928 88.2793 88.5143C88.2826 88.5357 88.2816 88.5577 88.2764 88.5788C88.2711 88.5999 88.2616 88.6197 88.2486 88.6371C88.2355 88.6545 88.2191 88.6691 88.2002 88.68L77.2849 94.9812C77.2589 94.9956 77.2296 95.0029 77.2 95.0025Z" fill="#E0E0E0"/>
<path d="M77.2 96.6149C77.1708 96.6154 77.1421 96.6078 77.1171 96.5928C77.092 96.5778 77.0718 96.556 77.0585 96.53C77.0473 96.5111 77.0401 96.4901 77.0373 96.4684C77.0344 96.4466 77.036 96.4244 77.042 96.4033C77.0479 96.3821 77.0581 96.3624 77.0719 96.3453C77.0857 96.3282 77.1028 96.3141 77.1222 96.3037L88.0305 90.0096C88.049 89.9981 88.0696 89.9905 88.0911 89.9871C88.1126 89.9838 88.1345 89.9848 88.1556 89.99C88.1767 89.9953 88.1966 90.0048 88.2139 90.0178C88.2313 90.0309 88.2459 90.0473 88.2568 90.0661C88.2685 90.0852 88.2762 90.1063 88.2797 90.1283C88.2831 90.1504 88.2822 90.1729 88.2769 90.1946C88.2717 90.2162 88.2622 90.2367 88.249 90.2547C88.2359 90.2727 88.2193 90.2879 88.2003 90.2995L77.2849 96.5937C77.2589 96.6081 77.2296 96.6154 77.2 96.6149Z" fill="#E0E0E0"/>
<path d="M77.2 98.1637C77.1708 98.1643 77.1421 98.1566 77.117 98.1416C77.092 98.1266 77.0717 98.1048 77.0585 98.0789C77.0462 98.0602 77.0381 98.0392 77.0347 98.0172C77.0313 97.9951 77.0326 97.9726 77.0387 97.9512C77.0447 97.9297 77.0553 97.9098 77.0697 97.8928C77.0841 97.8758 77.102 97.8621 77.1221 97.8526L88.0305 91.5513C88.0691 91.5307 88.1143 91.5258 88.1565 91.5376C88.1986 91.5495 88.2346 91.5772 88.2568 91.615C88.2683 91.6335 88.2759 91.6541 88.2793 91.6755C88.2826 91.697 88.2816 91.719 88.2764 91.7401C88.2711 91.7612 88.2616 91.781 88.2486 91.7984C88.2355 91.8158 88.2191 91.8303 88.2002 91.8413L77.2848 98.1425C77.2589 98.1569 77.2296 98.1642 77.2 98.1637Z" fill="#E0E0E0"/>
<path d="M25.8701 137.301C25.8408 137.301 25.8119 137.294 25.786 137.281C25.7601 137.267 25.7379 137.247 25.7215 137.223C25.7102 137.203 25.7029 137.182 25.6999 137.16C25.697 137.137 25.6985 137.115 25.7045 137.093C25.7104 137.071 25.7206 137.051 25.7344 137.033C25.7483 137.015 25.7655 137.001 25.7852 136.99L36.6935 130.695C36.7125 130.684 36.7337 130.676 36.7557 130.673C36.7778 130.669 36.8003 130.67 36.8219 130.675C36.8436 130.681 36.8641 130.69 36.8821 130.703C36.9001 130.716 36.9153 130.733 36.9269 130.752C36.948 130.792 36.9531 130.838 36.9413 130.881C36.9295 130.925 36.9016 130.962 36.8633 130.985L25.9903 137.279C25.9537 137.3 25.9114 137.307 25.8701 137.301Z" fill="#455A64"/>
<path d="M25.8701 138.885C25.84 138.885 25.8104 138.877 25.7843 138.862C25.7582 138.848 25.7366 138.826 25.7215 138.8C25.7103 138.781 25.7031 138.76 25.7003 138.738C25.6974 138.716 25.699 138.694 25.705 138.673C25.7109 138.652 25.7211 138.632 25.7349 138.615C25.7487 138.598 25.7658 138.584 25.7852 138.574L36.6935 132.272C36.7332 132.251 36.7794 132.246 36.8228 132.258C36.8662 132.27 36.9034 132.298 36.9269 132.336C36.9476 132.375 36.9525 132.42 36.9406 132.462C36.9288 132.504 36.9011 132.54 36.8633 132.562L25.9903 138.864L25.8701 138.885Z" fill="#E0E0E0"/>
<path d="M25.8701 140.462C25.8403 140.461 25.8112 140.453 25.7853 140.438C25.7594 140.423 25.7376 140.402 25.7215 140.377C25.7102 140.358 25.7029 140.336 25.6999 140.314C25.697 140.291 25.6985 140.269 25.7045 140.247C25.7104 140.225 25.7206 140.205 25.7344 140.187C25.7483 140.17 25.7655 140.155 25.7852 140.144L36.6935 133.85C36.713 133.838 36.7345 133.831 36.7568 133.828C36.7791 133.825 36.8018 133.827 36.8235 133.832C36.8453 133.838 36.8656 133.849 36.8834 133.862C36.9011 133.876 36.9159 133.894 36.9269 133.913C36.9476 133.952 36.9525 133.997 36.9406 134.039C36.9288 134.081 36.9011 134.117 36.8633 134.139L25.9903 140.462C25.9513 140.475 25.9091 140.475 25.8701 140.462Z" fill="#E0E0E0"/>
<path d="M25.8701 142.046C25.8344 142.044 25.8001 142.031 25.7723 142.009C25.7444 141.986 25.7243 141.956 25.7149 141.921C25.7055 141.887 25.7072 141.85 25.7198 141.817C25.7325 141.783 25.7553 141.755 25.7852 141.735L36.6935 135.441C36.7125 135.429 36.7337 135.421 36.7557 135.418C36.7778 135.414 36.8003 135.415 36.8219 135.421C36.8436 135.426 36.8641 135.435 36.8821 135.449C36.9001 135.462 36.9153 135.478 36.9269 135.497C36.948 135.537 36.9531 135.583 36.9413 135.627C36.9295 135.67 36.9016 135.707 36.8633 135.731L25.9903 142.025L25.8701 142.046Z" fill="#E0E0E0"/>
<path d="M152.829 19.5289V105.731C152.791 106.449 152.584 107.149 152.224 107.772C151.863 108.395 151.361 108.924 150.757 109.316L95.6493 141.141C95.4368 141.272 95.1916 141.34 94.9419 141.339C94.855 141.349 94.7671 141.349 94.6802 141.339C94.6188 141.325 94.5593 141.304 94.5033 141.275L94.3901 141.219L94.2699 141.134C94.2289 141.104 94.191 141.071 94.1567 141.035C93.9942 140.88 93.8643 140.695 93.7747 140.49C93.6301 140.16 93.5554 139.804 93.5554 139.443V53.6659C93.5962 52.9478 93.805 52.2493 94.165 51.6266C94.525 51.0039 95.0261 50.4743 95.6281 50.0804L150.736 18.3196C150.938 18.1756 151.174 18.0841 151.421 18.0533C151.668 18.0224 151.918 18.0532 152.15 18.1428C152.212 18.1729 152.272 18.2084 152.327 18.2489C152.509 18.4048 152.65 18.6031 152.738 18.8263C152.826 19.0495 152.857 19.2907 152.829 19.5289Z" fill="#455A64"/>
<path d="M151.676 18.751C151.743 18.748 151.809 18.7626 151.867 18.7934H151.903C151.903 18.7934 152.122 18.9773 152.122 19.5006V105.731C152.085 106.325 151.91 106.903 151.612 107.418C151.314 107.934 150.9 108.373 150.403 108.701L95.3026 140.525C95.2024 140.588 95.0881 140.624 94.9702 140.632H94.8499H94.8145L94.7579 140.589H94.7155L94.6801 140.554C94.5918 140.463 94.52 140.358 94.4679 140.243C94.3648 140.004 94.3118 139.746 94.3123 139.486V53.6659C94.3556 53.0732 94.5328 52.4979 94.8306 51.9834C95.1283 51.469 95.5388 51.0287 96.0313 50.6957L151.139 18.9349C151.308 18.8251 151.503 18.7617 151.705 18.751H151.676ZM151.705 18.0438C151.379 18.0537 151.062 18.1488 150.785 18.3196L95.6776 50.0804C95.0756 50.4743 94.5744 51.0039 94.2145 51.6266C93.8545 52.2494 93.6457 52.9478 93.6049 53.6659V139.38C93.6049 139.74 93.6796 140.096 93.8242 140.426C93.9138 140.632 94.0437 140.817 94.2062 140.971C94.2405 141.008 94.2784 141.041 94.3193 141.07L94.4396 141.155L94.5528 141.211C94.6088 141.24 94.6683 141.261 94.7296 141.275C94.8166 141.285 94.9044 141.285 94.9914 141.275C95.2239 141.266 95.4503 141.198 95.6493 141.077L150.757 109.253C151.361 108.861 151.863 108.332 152.224 107.709C152.584 107.085 152.791 106.386 152.829 105.667V19.5289C152.852 19.2953 152.819 19.0596 152.731 18.8418C152.644 18.6239 152.505 18.4303 152.327 18.2772C152.14 18.1376 151.91 18.0653 151.676 18.0721L151.705 18.0438Z" fill="#455A64"/>
<g opacity="0.8">
<path opacity="0.8" d="M152.829 19.5289V105.731C152.791 106.449 152.584 107.149 152.224 107.772C151.863 108.395 151.361 108.924 150.757 109.316L95.6493 141.141C95.4368 141.272 95.1916 141.34 94.9419 141.339C94.855 141.349 94.7671 141.349 94.6802 141.339C94.6188 141.325 94.5593 141.304 94.5033 141.275L94.3901 141.219L94.2699 141.134C94.2289 141.104 94.191 141.071 94.1567 141.035C93.9942 140.88 93.8643 140.695 93.7747 140.49C93.6301 140.16 93.5554 139.804 93.5554 139.443V53.6659C93.5962 52.9478 93.805 52.2493 94.165 51.6266C94.525 51.0039 95.0261 50.4743 95.6281 50.0804L150.736 18.3196C150.938 18.1756 151.174 18.0841 151.421 18.0533C151.668 18.0224 151.918 18.0532 152.15 18.1428C152.212 18.1729 152.272 18.2084 152.327 18.2489C152.509 18.4048 152.65 18.6031 152.738 18.8263C152.826 19.0495 152.857 19.2907 152.829 19.5289Z" fill="#455A64"/>
</g>
<path d="M152.15 18.1145C151.918 18.0249 151.668 17.9942 151.421 18.025C151.174 18.0559 150.938 18.1474 150.736 18.2913L95.6281 50.0521C95.0261 50.446 94.525 50.9756 94.165 51.5984C93.805 52.2211 93.5962 52.9196 93.5554 53.6377V60.4057L90.9167 58.8569V52.1384C90.9545 51.4214 91.1613 50.7234 91.5203 50.1015C91.8793 49.4796 92.3803 48.9514 92.9824 48.5599L148.097 16.7991C148.31 16.6401 148.564 16.5445 148.829 16.5232C149.095 16.5019 149.361 16.5559 149.597 16.6789C149.993 16.9264 151.712 17.9165 152.15 18.1145Z" fill="#4CAF4F"/>
<path d="M152.829 19.5289C152.829 18.2206 151.896 17.6973 150.757 18.355L95.6493 50.1158C95.0483 50.5085 94.5483 51.037 94.1894 51.6587C93.8306 52.2803 93.6231 52.9776 93.5836 53.6943V60.4623L152.829 26.2969V19.5289Z" fill="#4CAF4F"/>
<g opacity="0.4">
<path opacity="0.4" d="M150.757 18.3196L95.6493 50.0804C95.0427 50.4651 94.5419 50.995 94.192 51.6222L91.5675 50.0946C91.9025 49.4798 92.3897 48.9612 92.9823 48.5882L148.09 16.8274C148.306 16.6712 148.56 16.5767 148.826 16.5543C149.091 16.5319 149.358 16.5823 149.597 16.7001C149.964 16.9335 151.683 17.9095 152.122 18.1146C151.895 18.0363 151.652 18.0141 151.414 18.0498C151.177 18.0855 150.951 18.1781 150.757 18.3196Z" fill="white"/>
</g>
<path opacity="0.15" d="M90.9308 58.8923V52.1667C90.96 51.4326 91.1794 50.7185 91.5675 50.0946L94.199 51.6151C93.819 52.2362 93.6069 52.9453 93.5836 53.6731V60.434L90.9308 58.8923Z" fill="#103E13"/>
<path d="M140.358 27.2093C139.985 27.5039 139.686 27.8806 139.484 28.31C139.281 28.7394 139.181 29.2099 139.191 29.6845C139.191 30.6746 139.714 31.1838 140.358 30.809C140.729 30.5133 141.027 30.1364 141.23 29.7072C141.432 29.2781 141.533 28.8081 141.525 28.3338C141.525 27.3083 141.002 26.8345 140.358 27.2093Z" fill="#455A64"/>
<path d="M144.567 24.7694C144.196 25.065 143.897 25.442 143.695 25.8712C143.493 26.3003 143.392 26.7702 143.4 27.2446C143.4 28.2418 143.923 28.7439 144.567 28.3762C144.94 28.0819 145.24 27.7054 145.444 27.2761C145.648 26.8467 145.75 26.3761 145.741 25.9009C145.741 24.9038 145.218 24.4016 144.567 24.7694Z" fill="#455A64"/>
<path d="M148.776 22.3578C148.405 22.6534 148.107 23.0304 147.904 23.4595C147.702 23.8887 147.601 24.3586 147.609 24.833C147.609 25.8302 148.132 26.3323 148.776 25.9575C149.151 25.6644 149.452 25.2881 149.656 24.8585C149.859 24.4288 149.96 23.9576 149.95 23.4822C149.95 22.4709 149.427 21.9617 148.776 22.3578Z" fill="#455A64"/>
<path d="M94.3406 141.12L94.0788 140.971C93.8728 140.84 93.6603 140.72 93.4421 140.61L93.0955 140.412L92.5579 140.101L92.0981 139.84L91.8434 139.698C91.7063 139.631 91.5855 139.534 91.4897 139.415C91.3724 139.291 91.2767 139.147 91.2067 138.991C91.0501 138.649 90.9704 138.277 90.9733 137.902V58.8852L93.6119 60.434V139.38C93.6248 139.739 93.6989 140.093 93.8312 140.426C93.9209 140.632 94.0508 140.817 94.2132 140.971C94.2423 141.013 94.2812 141.047 94.3264 141.07L94.3406 141.12Z" fill="#37474F"/>
<path d="M98.762 63.3053C98.7652 63.2062 98.7919 63.1092 98.8398 63.0224L99.9433 60.731C99.9547 60.7063 99.9717 60.6845 99.9929 60.6674C99.9988 60.6612 100.006 60.6562 100.014 60.6529C100.022 60.6495 100.03 60.6478 100.039 60.6478C100.047 60.6478 100.056 60.6495 100.064 60.6529C100.072 60.6562 100.079 60.6612 100.085 60.6674C100.11 60.6968 100.123 60.7348 100.12 60.7735V61.5443C100.129 61.6242 100.129 61.7049 100.12 61.7848C100.12 61.8413 100.078 61.9121 100.042 61.9899L99.4552 63.1992L100.042 63.7367C100.075 63.7722 100.101 63.8128 100.12 63.8569C100.13 63.9273 100.13 63.9987 100.12 64.0691V64.7904C100.119 64.8441 100.107 64.8969 100.085 64.946C100.064 64.9887 100.032 65.0252 99.9929 65.0521C99.9929 65.0521 99.9929 65.0521 99.9433 65.0521L98.8539 64.0832C98.8263 64.0602 98.8047 64.0307 98.7912 63.9975C98.7776 63.9642 98.7724 63.928 98.7761 63.8923L98.762 63.3053Z" fill="#4CAF4F"/>
<path d="M102.808 57.5698C102.826 57.4917 102.852 57.4158 102.886 57.3435C102.923 57.2725 102.979 57.2136 103.049 57.1738L103.466 56.9333C103.466 56.9333 103.53 56.9333 103.551 56.9333C103.565 56.9468 103.576 56.9635 103.582 56.982C103.588 57.0005 103.59 57.0202 103.586 57.0394C103.59 57.0676 103.59 57.0961 103.586 57.1243L101.684 65.2077C101.666 65.2835 101.64 65.357 101.606 65.4269C101.571 65.5052 101.511 65.5699 101.436 65.6108L101.04 65.8442C101.028 65.8533 101.013 65.8583 100.997 65.8583C100.982 65.8583 100.967 65.8533 100.955 65.8442C100.94 65.8293 100.929 65.8116 100.922 65.7921C100.914 65.7726 100.911 65.7518 100.912 65.731C100.91 65.7028 100.91 65.6744 100.912 65.6461L102.808 57.5698Z" fill="#4CAF4F"/>
<path d="M105.737 59.84C105.734 59.9413 105.707 60.0406 105.659 60.1299L104.556 62.4142L104.506 62.4849C104.492 62.4937 104.476 62.4985 104.46 62.4985C104.444 62.4985 104.428 62.4937 104.414 62.4849C104.401 62.4484 104.401 62.4083 104.414 62.3718V61.6009C104.405 61.5234 104.405 61.4451 104.414 61.3675C104.436 61.2943 104.464 61.2232 104.499 61.1554L105.079 59.9461L104.499 59.4156C104.464 59.3809 104.435 59.3402 104.414 59.2954C104.404 59.2251 104.404 59.1536 104.414 59.0833V58.3124C104.405 58.2609 104.405 58.2083 104.414 58.1568C104.435 58.1141 104.467 58.0776 104.506 58.0507C104.513 58.0456 104.522 58.0428 104.531 58.0428C104.54 58.0428 104.548 58.0456 104.556 58.0507L105.659 59.062C105.687 59.0865 105.708 59.1172 105.722 59.1517C105.736 59.1861 105.741 59.2233 105.737 59.2601V59.84Z" fill="#4CAF4F"/>
<path d="M108.807 59.3166C108.823 59.304 108.843 59.2972 108.864 59.2972C108.884 59.2972 108.904 59.304 108.92 59.3166C108.952 59.3565 108.967 59.4072 108.963 59.4581V60.2997C108.962 60.3656 108.948 60.4307 108.92 60.4906C108.894 60.5439 108.855 60.59 108.807 60.625L108.291 60.922C108.276 60.9354 108.257 60.9429 108.238 60.9429C108.218 60.9429 108.199 60.9354 108.185 60.922C108.166 60.9052 108.152 60.8842 108.144 60.8608C108.135 60.8375 108.132 60.8123 108.135 60.7876V59.939C108.135 59.8721 108.152 59.8062 108.185 59.748C108.204 59.6947 108.242 59.6497 108.291 59.6207L108.807 59.3166Z" fill="#4CAF4F"/>
<path d="M110.555 58.3124C110.57 58.3003 110.588 58.2938 110.608 58.2938C110.627 58.2938 110.646 58.3003 110.661 58.3124C110.692 58.3523 110.708 58.403 110.703 58.4538V59.2954C110.703 59.3613 110.688 59.4264 110.661 59.4863C110.641 59.5397 110.603 59.5847 110.555 59.6136L110.031 59.9177C110.016 59.9298 109.997 59.9364 109.978 59.9364C109.959 59.9364 109.94 59.9298 109.925 59.9177C109.893 59.8778 109.878 59.8272 109.882 59.7763V58.9347C109.883 58.8688 109.897 58.8037 109.925 58.7438C109.946 58.6895 109.983 58.6428 110.031 58.6094L110.555 58.3124Z" fill="#4CAF4F"/>
<path d="M112.295 57.3081C112.31 57.2942 112.33 57.2865 112.351 57.2865C112.372 57.2865 112.392 57.2942 112.408 57.3081C112.424 57.3264 112.436 57.3478 112.443 57.3709C112.45 57.394 112.453 57.4184 112.45 57.4425V58.2912C112.45 58.3571 112.435 58.4222 112.408 58.4821C112.384 58.5349 112.344 58.5793 112.295 58.6094L111.778 58.9135C111.763 58.9256 111.745 58.9321 111.725 58.9321C111.706 58.9321 111.687 58.9256 111.672 58.9135C111.654 58.8953 111.64 58.8731 111.631 58.8486C111.622 58.824 111.62 58.7979 111.623 58.7721V57.9305C111.622 57.8636 111.639 57.7978 111.672 57.7395C111.694 57.6853 111.731 57.6386 111.778 57.6052L112.295 57.3081Z" fill="#4CAF4F"/>
<path d="M99.2288 69.4721L134.932 48.8782C135.229 48.7085 135.477 48.8287 135.477 49.154C135.463 49.337 135.407 49.5141 135.312 49.6713C135.217 49.8285 135.087 49.9614 134.932 50.0592L99.25 70.6532C98.9458 70.83 98.7053 70.7098 98.7053 70.3774C98.7161 70.1962 98.7691 70.02 98.86 69.8629C98.9508 69.7057 99.0771 69.5719 99.2288 69.4721Z" fill="#4CAF4F"/>
<path d="M107.428 78.9346L143.11 58.3406C143.407 58.1709 143.654 58.2911 143.654 58.6165C143.641 58.8004 143.584 58.9785 143.49 59.1369C143.395 59.2952 143.265 59.4294 143.11 59.5288L107.428 80.1227C107.124 80.2924 106.883 80.1722 106.883 79.8469C106.895 79.6626 106.951 79.4838 107.046 79.3252C107.14 79.1666 107.271 79.0327 107.428 78.9346Z" fill="#C8E6C9"/>
<path d="M107.428 83.6729L129.782 70.7734C130.086 70.5966 130.327 70.7168 130.327 71.0492C130.314 71.2323 130.257 71.4097 130.163 71.567C130.068 71.7243 129.938 71.857 129.782 71.9544L107.428 84.8539C107.124 85.0237 106.883 84.9034 106.883 84.5781C106.895 84.3948 106.951 84.2169 107.046 84.0595C107.14 83.902 107.271 83.7695 107.428 83.6729Z" fill="#C8E6C9"/>
<path d="M107.428 88.4041L129.782 75.5046C130.086 75.3278 130.327 75.4551 130.327 75.7804C130.314 75.9635 130.257 76.1409 130.163 76.2982C130.068 76.4555 129.938 76.5882 129.782 76.6857L107.428 89.5852C107.124 89.762 106.883 89.6347 106.883 89.3094C106.895 89.126 106.951 88.9482 107.046 88.7907C107.14 88.6332 107.271 88.5007 107.428 88.4041Z" fill="#C8E6C9"/>
<path d="M137.054 47.6547L147.234 41.7566C147.538 41.5868 147.779 41.7071 147.779 42.0324C147.767 42.2167 147.711 42.3955 147.616 42.5541C147.521 42.7127 147.39 42.8466 147.234 42.9447L137.054 48.8428C136.75 49.0125 136.51 48.8923 136.51 48.567C136.522 48.3827 136.577 48.2039 136.672 48.0453C136.767 47.8867 136.898 47.7528 137.054 47.6547Z" fill="#4CAF4F"/>
<path d="M108.05 116.495L134.932 100.936C135.229 100.759 135.477 100.886 135.477 101.212C135.462 101.394 135.405 101.571 135.311 101.728C135.216 101.885 135.086 102.018 134.932 102.117L108.05 117.676C107.746 117.845 107.506 117.725 107.506 117.4C107.52 117.217 107.576 117.04 107.671 116.883C107.766 116.726 107.895 116.593 108.05 116.495Z" fill="#4CAF4F"/>
<path d="M137.054 99.7053L147.206 93.786C147.51 93.6092 147.75 93.7365 147.75 94.0618C147.738 94.2451 147.683 94.423 147.588 94.5804C147.493 94.7379 147.362 94.8704 147.206 94.967L137.054 100.858C136.75 101.035 136.51 100.908 136.51 100.582C136.527 100.404 136.585 100.232 136.68 100.08C136.774 99.9282 136.902 99.7999 137.054 99.7053Z" fill="#4CAF4F"/>
<path d="M112.613 99.5781L147.206 79.6347C147.51 79.465 147.75 79.5852 147.75 79.9106C147.738 80.0949 147.683 80.2737 147.588 80.4323C147.493 80.5909 147.362 80.7247 147.206 80.8229L112.613 100.766C112.316 100.936 112.068 100.816 112.068 100.483C112.083 100.301 112.14 100.124 112.235 99.9668C112.329 99.8098 112.459 99.6767 112.613 99.5781Z" fill="#4CAF4F"/>
<path d="M103.933 109.486L147.206 84.3659C147.51 84.1962 147.75 84.3164 147.75 84.6418C147.738 84.8261 147.683 85.0049 147.588 85.1635C147.493 85.3221 147.362 85.4559 147.206 85.554L103.933 110.667C103.636 110.844 103.388 110.717 103.388 110.391C103.402 110.208 103.459 110.031 103.553 109.874C103.648 109.717 103.778 109.584 103.933 109.486Z" fill="#4CAF4F"/>
<path d="M105.971 112.958L134.932 96.1976C135.229 96.0279 135.477 96.1481 135.477 96.4734C135.463 96.6573 135.407 96.8355 135.312 96.9938C135.217 97.1521 135.087 97.2863 134.932 97.3857L105.992 114.147C105.688 114.316 105.447 114.196 105.447 113.871C105.457 113.688 105.509 113.511 105.6 113.352C105.691 113.194 105.818 113.059 105.971 112.958Z" fill="#E8F5E9"/>
<path d="M103.933 104.578L109.656 101.275C109.953 101.099 110.201 101.226 110.201 101.551C110.187 101.734 110.131 101.911 110.036 102.068C109.941 102.226 109.811 102.359 109.656 102.456L103.933 105.759C103.636 105.936 103.388 105.809 103.388 105.483C103.4 105.3 103.456 105.122 103.551 104.965C103.646 104.807 103.777 104.675 103.933 104.578Z" fill="#4CAF4F"/>
<path d="M99.2288 74.2175L124.257 59.7622C124.561 59.5854 124.809 59.7127 124.809 60.038C124.795 60.2219 124.738 60.3999 124.642 60.5573C124.547 60.7147 124.414 60.847 124.257 60.9432L99.2288 75.3986C98.9246 75.5754 98.6841 75.4481 98.6841 75.1228C98.6961 74.9394 98.7519 74.7616 98.8466 74.6041C98.9414 74.4466 99.0724 74.3141 99.2288 74.2175Z" fill="#4CAF4F"/>
<path opacity="0.6" d="M99.2288 74.2175L124.257 59.7622C124.561 59.5854 124.809 59.7127 124.809 60.038C124.795 60.2219 124.738 60.3999 124.642 60.5573C124.547 60.7147 124.414 60.847 124.257 60.9432L99.2288 75.3986C98.9246 75.5754 98.6841 75.4481 98.6841 75.1228C98.6961 74.9394 98.7519 74.7616 98.8466 74.6041C98.9414 74.4466 99.0724 74.3141 99.2288 74.2175Z" fill="white"/>
<path d="M99.2288 78.9346L104.287 76.0138C104.584 75.837 104.832 75.9572 104.832 76.2896C104.817 76.4723 104.76 76.649 104.665 76.8061C104.571 76.9631 104.441 77.0962 104.287 77.1948L99.2288 80.1156C98.9246 80.2924 98.6841 80.1651 98.6841 79.8398C98.6961 79.6564 98.7519 79.4786 98.8466 79.3211C98.9414 79.1637 99.0724 79.0311 99.2288 78.9346Z" fill="#4CAF4F"/>
<path opacity="0.6" d="M99.2288 78.9346L104.287 76.0138C104.584 75.837 104.832 75.9572 104.832 76.2896C104.817 76.4723 104.76 76.649 104.665 76.8061C104.571 76.9631 104.441 77.0962 104.287 77.1948L99.2288 80.1156C98.9246 80.2924 98.6841 80.1651 98.6841 79.8398C98.6961 79.6564 98.7519 79.4786 98.8466 79.3211C98.9414 79.1637 99.0724 79.0311 99.2288 78.9346Z" fill="white"/>
<path d="M99.2288 83.6729L104.287 80.7522C104.584 80.5754 104.832 80.7027 104.832 81.028C104.817 81.2106 104.76 81.3874 104.665 81.5444C104.571 81.7015 104.441 81.8345 104.287 81.9332L99.2288 84.854C98.9246 85.0308 98.6841 84.9035 98.6841 84.5782C98.6961 84.3948 98.7519 84.217 98.8466 84.0595C98.9414 83.902 99.0724 83.7695 99.2288 83.6729Z" fill="#4CAF4F"/>
<path opacity="0.6" d="M99.2288 83.6729L104.287 80.7522C104.584 80.5754 104.832 80.7027 104.832 81.028C104.817 81.2106 104.76 81.3874 104.665 81.5444C104.571 81.7015 104.441 81.8345 104.287 81.9332L99.2288 84.854C98.9246 85.0308 98.6841 84.9035 98.6841 84.5782C98.6961 84.3948 98.7519 84.217 98.8466 84.0595C98.9414 83.902 99.0724 83.7695 99.2288 83.6729Z" fill="white"/>
<path d="M99.2288 88.4041L104.287 85.4833C104.584 85.3065 104.832 85.4338 104.832 85.7592C104.817 85.9418 104.76 86.1186 104.665 86.2756C104.571 86.4327 104.441 86.5657 104.287 86.6644L99.2288 89.5852C98.9246 89.762 98.6841 89.6347 98.6841 89.3093C98.6973 89.1263 98.7535 88.9489 98.8481 88.7916C98.9427 88.6343 99.0732 88.5015 99.2288 88.4041Z" fill="#4CAF4F"/>
<path opacity="0.6" d="M99.2288 88.4041L104.287 85.4833C104.584 85.3065 104.832 85.4338 104.832 85.7592C104.817 85.9418 104.76 86.1186 104.665 86.2756C104.571 86.4327 104.441 86.5657 104.287 86.6644L99.2288 89.5852C98.9246 89.762 98.6841 89.6347 98.6841 89.3093C98.6973 89.1263 98.7535 88.9489 98.8481 88.7916C98.9427 88.6343 99.0732 88.5015 99.2288 88.4041Z" fill="white"/>
<path d="M99.2288 93.1354L104.287 90.2146C104.584 90.0378 104.832 90.1651 104.832 90.4904C104.817 90.6731 104.76 90.8498 104.665 91.0069C104.571 91.1639 104.441 91.297 104.287 91.3957L99.2288 94.3164C98.9246 94.4932 98.6841 94.3659 98.6841 94.0406C98.6973 93.8575 98.7535 93.6801 98.8481 93.5229C98.9427 93.3656 99.0732 93.2328 99.2288 93.1354Z" fill="#4CAF4F"/>
<path opacity="0.6" d="M99.2288 93.1354L104.287 90.2146C104.584 90.0378 104.832 90.1651 104.832 90.4904C104.817 90.6731 104.76 90.8498 104.665 91.0069C104.571 91.1639 104.441 91.297 104.287 91.3957L99.2288 94.3164C98.9246 94.4932 98.6841 94.3659 98.6841 94.0406C98.6973 93.8575 98.7535 93.6801 98.8481 93.5229C98.9427 93.3656 99.0732 93.2328 99.2288 93.1354Z" fill="white"/>
<path d="M107.428 121.693L129.782 108.793C130.086 108.616 130.327 108.744 130.327 109.069C130.314 109.252 130.257 109.429 130.163 109.587C130.068 109.744 129.938 109.877 129.782 109.974L107.428 122.874C107.124 123.05 106.883 122.923 106.883 122.598C106.895 122.414 106.951 122.237 107.046 122.079C107.14 121.922 107.271 121.789 107.428 121.693Z" fill="#C8E6C9"/>
<path d="M107.428 126.424L129.782 113.524C130.086 113.347 130.327 113.475 130.327 113.8C130.315 113.983 130.259 114.161 130.164 114.319C130.069 114.476 129.938 114.609 129.782 114.705L107.428 127.605C107.124 127.782 106.883 127.654 106.883 127.329C106.896 127.146 106.952 126.969 107.047 126.811C107.142 126.654 107.272 126.521 107.428 126.424Z" fill="#C8E6C9"/>
<path d="M133.036 106.912L147.085 98.8284C147.389 98.6587 147.63 98.7789 147.63 99.1042C147.618 99.2885 147.562 99.4673 147.468 99.6259C147.373 99.7845 147.242 99.9184 147.085 100.017L133.036 108.093C132.739 108.27 132.491 108.142 132.491 107.817C132.505 107.634 132.562 107.457 132.656 107.3C132.751 107.143 132.881 107.01 133.036 106.912Z" fill="#C8E6C9"/>
<path d="M133.036 111.643L147.085 103.56C147.389 103.39 147.63 103.51 147.63 103.843C147.617 104.026 147.561 104.203 147.466 104.36C147.371 104.518 147.241 104.65 147.085 104.748L133.036 112.824C132.739 113.001 132.491 112.874 132.491 112.548C132.506 112.366 132.563 112.189 132.658 112.032C132.752 111.875 132.882 111.742 133.036 111.643Z" fill="#C8E6C9"/>
<path d="M99.2288 126.424L104.287 123.503C104.584 123.326 104.832 123.453 104.832 123.779C104.818 123.962 104.761 124.139 104.667 124.296C104.572 124.453 104.442 124.586 104.287 124.684L99.2288 127.605C98.9246 127.782 98.6841 127.661 98.6841 127.329C98.6973 127.146 98.7535 126.969 98.8481 126.811C98.9427 126.654 99.0732 126.521 99.2288 126.424Z" fill="#4CAF4F"/>
<path opacity="0.6" d="M99.2288 126.424L104.287 123.503C104.584 123.326 104.832 123.453 104.832 123.779C104.818 123.962 104.761 124.139 104.667 124.296C104.572 124.453 104.442 124.586 104.287 124.684L99.2288 127.605C98.9246 127.782 98.6841 127.661 98.6841 127.329C98.6973 127.146 98.7535 126.969 98.8481 126.811C98.9427 126.654 99.0732 126.521 99.2288 126.424Z" fill="white"/>
<path d="M99.2288 131.155L104.287 128.234C104.584 128.064 104.832 128.185 104.832 128.51C104.818 128.693 104.761 128.87 104.667 129.027C104.572 129.185 104.442 129.317 104.287 129.415L99.2288 132.343C98.9246 132.513 98.6841 132.393 98.6841 132.067C98.6962 131.883 98.7519 131.704 98.8466 131.546C98.9413 131.387 99.0723 131.253 99.2288 131.155Z" fill="#4CAF4F"/>
<path opacity="0.6" d="M99.2288 131.155L104.287 128.234C104.584 128.064 104.832 128.185 104.832 128.51C104.818 128.693 104.761 128.87 104.667 129.027C104.572 129.185 104.442 129.317 104.287 129.415L99.2288 132.343C98.9246 132.513 98.6841 132.393 98.6841 132.067C98.6962 131.883 98.7519 131.704 98.8466 131.546C98.9413 131.387 99.0723 131.253 99.2288 131.155Z" fill="white"/>
<path d="M126.379 58.5387L132.859 54.8117C133.156 54.6349 133.404 54.7622 133.404 55.0875C133.39 55.2704 133.334 55.4476 133.239 55.6048C133.145 55.762 133.014 55.8949 132.859 55.9927L126.379 59.7197C126.075 59.8965 125.828 59.7763 125.828 59.4439C125.842 59.2603 125.9 59.0827 125.995 58.9255C126.091 58.7682 126.223 58.6357 126.379 58.5387Z" fill="#4CAF4F"/>
<path opacity="0.6" d="M126.379 58.5387L132.859 54.8117C133.156 54.6349 133.404 54.7622 133.404 55.0875C133.39 55.2704 133.334 55.4476 133.239 55.6048C133.145 55.762 133.014 55.8949 132.859 55.9927L126.379 59.7197C126.075 59.8965 125.828 59.7763 125.828 59.4439C125.842 59.2603 125.9 59.0827 125.995 58.9255C126.091 58.7682 126.223 58.6357 126.379 58.5387Z" fill="white"/>
<path d="M107.039 93.3193L138.611 75.1228C138.908 74.946 139.155 75.0733 139.155 75.3986C139.141 75.5815 139.085 75.7587 138.99 75.9159C138.896 76.0731 138.766 76.206 138.611 76.3038L107.039 94.4933C106.742 94.6701 106.494 94.5428 106.494 94.2174C106.509 94.0357 106.566 93.86 106.66 93.7041C106.755 93.5482 106.884 93.4164 107.039 93.3193Z" fill="#E8F5E9"/>
<path d="M99.2288 102.676L147.206 74.9105C147.51 74.7337 147.75 74.861 147.75 75.1863C147.738 75.3697 147.682 75.5475 147.588 75.705C147.493 75.8625 147.362 75.995 147.206 76.0916L99.2288 103.857C98.9246 104.033 98.6841 103.906 98.6841 103.581C98.6961 103.397 98.7519 103.22 98.8466 103.062C98.9414 102.905 99.0724 102.772 99.2288 102.676Z" fill="#E8F5E9"/>
<path d="M140.726 73.8993L147.206 70.1723C147.51 69.9955 147.75 70.1228 147.75 70.4481C147.738 70.6315 147.683 70.8093 147.588 70.9668C147.493 71.1242 147.362 71.2568 147.206 71.3533L140.726 75.0874C140.421 75.2571 140.181 75.1369 140.181 74.8045C140.194 74.6214 140.25 74.444 140.345 74.2867C140.44 74.1295 140.57 73.9967 140.726 73.8993Z" fill="#E8F5E9"/>
<path d="M107.428 74.2104L132.456 59.755C132.76 59.5782 133.008 59.7055 133.008 60.0308C132.993 60.2144 132.936 60.392 132.84 60.5493C132.744 60.7065 132.613 60.839 132.456 60.9361L107.428 75.3985C107.124 75.5753 106.876 75.448 106.876 75.1227C106.888 74.9376 106.945 74.7582 107.041 74.5994C107.137 74.4407 107.269 74.3073 107.428 74.2104Z" fill="#4CAF4F"/>
<path opacity="0.6" d="M107.428 74.2104L132.456 59.755C132.76 59.5782 133.008 59.7055 133.008 60.0308C132.993 60.2144 132.936 60.392 132.84 60.5493C132.744 60.7065 132.613 60.839 132.456 60.9361L107.428 75.3985C107.124 75.5753 106.876 75.448 106.876 75.1227C106.888 74.9376 106.945 74.7582 107.041 74.5994C107.137 74.4407 107.269 74.3073 107.428 74.2104Z" fill="white"/>
<path d="M134.578 58.5316L141.058 54.8046C141.355 54.6278 141.603 54.748 141.603 55.0804C141.588 55.2631 141.531 55.4398 141.437 55.5969C141.342 55.7539 141.213 55.887 141.058 55.9856L134.578 59.7126C134.274 59.8894 134.026 59.7621 134.026 59.4368C134.041 59.2532 134.098 59.0757 134.194 58.9184C134.29 58.7611 134.422 58.6286 134.578 58.5316Z" fill="#4CAF4F"/>
<path opacity="0.6" d="M134.578 58.5316L141.058 54.8046C141.355 54.6278 141.603 54.748 141.603 55.0804C141.588 55.2631 141.531 55.4398 141.437 55.5969C141.342 55.7539 141.213 55.887 141.058 55.9856L134.578 59.7126C134.274 59.8894 134.026 59.7621 134.026 59.4368C134.041 59.2532 134.098 59.0757 134.194 58.9184C134.29 58.7611 134.422 58.6286 134.578 58.5316Z" fill="white"/>
<path opacity="0.1" d="M21.0738 158.474L0.813526 170.165C0.575872 170.319 0.378262 170.528 0.236864 170.774C0.095466 171.02 0.0142969 171.296 0 171.579V195.999C0 196.515 0.367856 196.706 0.813526 196.466L21.0738 184.797C21.3107 184.641 21.5077 184.432 21.649 184.186C21.7903 183.941 21.8719 183.665 21.8874 183.382V158.941C21.8874 158.425 21.5195 158.22 21.0738 158.474Z" fill="#103E13"/>
<path opacity="0.1" d="M15.3296 109.988L0.374931 118.602C0.266082 118.672 0.175367 118.767 0.110204 118.879C0.045041 118.991 0.00727702 119.116 0 119.246V127.591C0 127.831 0.169781 127.923 0.374931 127.803L15.3296 119.189C15.4384 119.12 15.5291 119.027 15.5943 118.916C15.6595 118.806 15.6973 118.681 15.7046 118.553V110.2C15.7046 109.967 15.5348 109.868 15.3296 109.988Z" fill="#103E13"/>
<path opacity="0.1" d="M15.3296 127.336L0.374931 135.95C0.266082 136.02 0.175367 136.115 0.110204 136.227C0.045041 136.339 0.00727702 136.464 0 136.593V144.938C0 145.172 0.169781 145.271 0.374931 145.151L15.3296 136.537C15.4389 136.467 15.5299 136.372 15.5951 136.26C15.6603 136.149 15.6979 136.023 15.7046 135.893V127.548C15.7046 127.315 15.5348 127.216 15.3296 127.336Z" fill="#103E13"/>
<path opacity="0.1" d="M15.3296 144.705L0.374931 153.298C0.265685 153.367 0.174664 153.462 0.109448 153.574C0.0442334 153.686 0.00670901 153.812 0 153.941V162.286C0 162.52 0.169781 162.619 0.374931 162.499L15.3296 153.899C15.4385 153.829 15.5292 153.734 15.5944 153.622C15.6595 153.51 15.6973 153.385 15.7046 153.255V144.91C15.7046 144.656 15.5348 144.564 15.3296 144.705Z" fill="#103E13"/>
<path d="M23.5851 159.45L3.35308 171.119C3.11542 171.274 2.91781 171.483 2.77641 171.729C2.63502 171.975 2.55385 172.251 2.53955 172.534V196.954C2.55213 197.237 2.63258 197.514 2.77413 197.76C2.91568 198.006 3.11422 198.215 3.35308 198.368L4.89524 199.238C5.14748 199.365 5.42615 199.432 5.70876 199.432C5.99138 199.432 6.27004 199.365 6.52229 199.238L26.7826 187.569C27.0203 187.414 27.2179 187.205 27.3593 186.96C27.5007 186.714 27.5818 186.438 27.5961 186.155V161.678C27.5828 161.394 27.5012 161.117 27.3584 160.871C27.2156 160.625 27.0157 160.416 26.7755 160.264L25.2404 159.394C24.9801 159.27 24.6939 159.211 24.4059 159.221C24.1179 159.231 23.8364 159.309 23.5851 159.45Z" fill="#4CAF4F"/>
<path opacity="0.2" d="M6.49393 199.196C6.24059 199.319 5.96236 199.384 5.68041 199.384C5.39846 199.384 5.12022 199.319 4.86688 199.196L3.35302 198.326C3.11293 198.174 2.91343 197.965 2.77172 197.719C2.63 197.472 2.55031 197.195 2.53949 196.911V172.52C2.55354 172.226 2.64374 171.941 2.80123 171.692L5.94922 173.517C5.8012 173.758 5.71832 174.033 5.70871 174.316V198.729C5.68041 199.203 6.01289 199.471 6.49393 199.196Z" fill="#103E13"/>
<path opacity="0.5" d="M27.5536 161.565C27.49 161.155 27.1575 161.006 26.7543 161.24L6.49394 172.916C6.25392 173.063 6.05643 173.27 5.92093 173.517L2.76587 171.692C2.90105 171.457 3.09325 171.26 3.32473 171.119L23.585 159.45C23.8373 159.323 24.1159 159.257 24.3986 159.257C24.6812 159.257 24.9598 159.323 25.2121 159.45L26.7472 160.32C26.9625 160.458 27.1458 160.641 27.2849 160.856C27.424 161.07 27.5156 161.312 27.5536 161.565Z" fill="white"/>
<path d="M26.7543 161.24L6.49394 172.916C6.25589 173.07 6.05798 173.279 5.91653 173.525C5.77508 173.771 5.69415 174.047 5.68042 174.33V198.743C5.68042 199.259 6.04827 199.45 6.49394 199.21L26.7543 187.541C26.991 187.386 27.1875 187.177 27.3277 186.931C27.4679 186.685 27.5478 186.409 27.5607 186.126V161.678C27.5607 161.19 27.1999 160.971 26.7543 161.24Z" fill="#4CAF4F"/>
<path d="M7.02453 185.554C7.01966 185.382 7.0485 185.212 7.10942 185.051C7.185 184.887 7.27248 184.729 7.37116 184.578L12.1462 176.855C12.1691 176.822 12.1952 176.791 12.224 176.763L12.2806 176.721C12.3051 176.699 12.3365 176.687 12.369 176.687C12.4016 176.687 12.433 176.699 12.4575 176.721C12.484 176.753 12.5039 176.79 12.5161 176.83C12.5282 176.87 12.5323 176.912 12.5282 176.954V179.938C12.5356 180.154 12.4895 180.368 12.3938 180.561C12.3195 180.7 12.2368 180.835 12.1462 180.964L10.024 184.175L12.1462 184.995C12.2333 185.022 12.3165 185.06 12.3938 185.108C12.4858 185.165 12.5282 185.32 12.5282 185.568V188.552C12.5297 188.662 12.5055 188.771 12.4575 188.87C12.4202 188.957 12.3588 189.03 12.2806 189.083H12.224C12.1986 189.09 12.1716 189.09 12.1462 189.083L7.37116 186.876C7.2717 186.838 7.18222 186.777 7.10942 186.699C7.04016 186.579 7.01045 186.441 7.02453 186.303V185.554Z" fill="white"/>
<path d="M17.4447 172.456C17.4859 172.29 17.5452 172.129 17.6216 171.975C17.6959 171.818 17.8169 171.687 17.9682 171.6L19.5669 170.674C19.5937 170.651 19.6275 170.639 19.6624 170.639C19.6974 170.639 19.7312 170.651 19.7579 170.674C19.7863 170.707 19.8078 170.745 19.8212 170.786C19.8345 170.828 19.8395 170.871 19.8358 170.914C19.841 170.973 19.841 171.032 19.8358 171.091L15.7964 188.305C15.7606 188.467 15.7036 188.624 15.6266 188.771C15.5525 188.935 15.4287 189.071 15.2729 189.16L13.7025 190.066C13.6769 190.088 13.6442 190.1 13.6105 190.1C13.5768 190.1 13.5442 190.088 13.5186 190.066C13.4902 190.033 13.4687 189.995 13.4553 189.953C13.442 189.912 13.437 189.868 13.4407 189.825C13.432 189.767 13.432 189.707 13.4407 189.648L17.4447 172.456Z" fill="white"/>
<path d="M26.2238 175.242C26.2274 175.414 26.1986 175.584 26.1389 175.745C26.0615 175.906 25.9741 176.061 25.8771 176.211L21.095 183.934C21.0759 183.968 21.0521 183.999 21.0243 184.026L20.9677 184.068C20.8969 184.111 20.8333 184.111 20.7908 184.068C20.7639 184.036 20.7438 183.999 20.7316 183.959C20.7195 183.919 20.7156 183.877 20.7201 183.835V180.858C20.7111 180.644 20.7574 180.433 20.8545 180.242C20.9465 180.08 21.0243 179.945 21.095 179.839L23.2173 176.614L21.095 175.815C21.0088 175.785 20.9277 175.743 20.8545 175.688C20.7625 175.624 20.7201 175.469 20.7201 175.228V172.244C20.7186 172.134 20.7428 172.025 20.7908 171.926C20.8258 171.838 20.8877 171.764 20.9677 171.714H21.0243H21.095L25.8771 173.92C25.9766 173.958 26.0661 174.019 26.1389 174.097C26.2052 174.218 26.2347 174.355 26.2238 174.493V175.242Z" fill="white"/>
<path d="M17.8622 110.929L2.90746 119.55C2.79875 119.618 2.70801 119.712 2.64279 119.822C2.57757 119.933 2.53977 120.058 2.53253 120.186V128.538C2.53977 128.667 2.57757 128.791 2.64279 128.902C2.70801 129.013 2.79875 129.106 2.90746 129.175L4.38595 130.016C4.49668 130.068 4.61742 130.095 4.73966 130.095C4.8619 130.095 4.98264 130.068 5.09337 130.016L20.0905 121.367C20.1973 121.295 20.286 121.2 20.3498 121.088C20.4137 120.977 20.4508 120.852 20.4584 120.724V112.379C20.4511 112.25 20.4133 112.126 20.3481 112.015C20.2829 111.904 20.1922 111.811 20.0835 111.742L18.612 110.9C18.4928 110.849 18.3636 110.825 18.2339 110.83C18.1041 110.835 17.9771 110.868 17.8622 110.929Z" fill="#4CAF4F"/>
<path opacity="0.4" d="M17.8622 110.929L2.90746 119.55C2.79875 119.618 2.70801 119.712 2.64279 119.822C2.57757 119.933 2.53977 120.058 2.53253 120.186V128.538C2.53977 128.667 2.57757 128.791 2.64279 128.902C2.70801 129.013 2.79875 129.106 2.90746 129.175L4.38595 130.016C4.49668 130.068 4.61742 130.095 4.73966 130.095C4.8619 130.095 4.98264 130.068 5.09337 130.016L20.0905 121.367C20.1973 121.295 20.286 121.2 20.3498 121.088C20.4137 120.977 20.4508 120.852 20.4584 120.724V112.379C20.4511 112.25 20.4133 112.126 20.3481 112.015C20.2829 111.904 20.1922 111.811 20.0835 111.742L18.612 110.9C18.4928 110.849 18.3636 110.825 18.2339 110.83C18.1041 110.835 17.9771 110.868 17.8622 110.929Z" fill="#103E13"/>
<path d="M20.4509 112.336C20.4509 112.152 20.274 112.089 20.083 112.195L5.12828 120.808C5.01898 120.877 4.92889 120.972 4.86654 121.084L2.64526 119.811C2.70478 119.701 2.79268 119.608 2.89993 119.543L17.8546 110.929C17.9713 110.871 18.0996 110.841 18.2296 110.841C18.3596 110.841 18.4879 110.871 18.6045 110.929L20.0759 111.77C20.1768 111.831 20.2628 111.913 20.3277 112.011C20.3926 112.109 20.4347 112.22 20.4509 112.336Z" fill="#4CAF4F"/>
<path d="M20.0905 112.174L5.12872 120.809C5.02038 120.879 4.93043 120.974 4.86642 121.086C4.80242 121.198 4.76622 121.323 4.76086 121.452V129.797C4.76086 130.031 4.92357 130.13 5.12872 130.009L20.0905 121.367C20.1984 121.297 20.2881 121.202 20.352 121.09C20.416 120.978 20.4524 120.852 20.4584 120.724V112.379C20.4584 112.174 20.331 112.075 20.0905 112.174Z" fill="#4CAF4F"/>
<g opacity="0.2">
<path opacity="0.2" d="M20.0905 112.174L5.12872 120.809C5.02038 120.879 4.93043 120.974 4.86642 121.086C4.80242 121.198 4.76622 121.323 4.76086 121.452V129.797C4.76086 130.031 4.92357 130.13 5.12872 130.009L20.0905 121.367C20.1984 121.297 20.2881 121.202 20.352 121.09C20.416 120.978 20.4524 120.852 20.4584 120.724V112.379C20.4584 112.174 20.331 112.075 20.0905 112.174Z" fill="#103E13"/>
</g>
<path d="M8.4536 122.944C8.4536 123.015 8.4536 123.1 8.4536 123.213V123.92C8.4536 124.033 8.4536 124.118 8.4536 124.182C8.45978 124.282 8.47398 124.381 8.49605 124.479C8.51089 124.558 8.54765 124.632 8.60216 124.691C8.65089 124.741 8.7164 124.771 8.78608 124.776C8.88218 124.769 8.97486 124.738 9.0549 124.684C9.15855 124.633 9.25018 124.561 9.32372 124.472C9.39114 124.4 9.44827 124.319 9.4935 124.231C9.53772 124.153 9.5733 124.07 9.59961 123.984C9.59961 123.899 9.64205 123.828 9.6562 123.765C9.66304 123.697 9.67972 123.63 9.70572 123.567C9.73208 123.519 9.7713 123.48 9.8189 123.453L10.4414 123.093C10.4414 123.093 10.498 123.093 10.5122 123.093C10.5242 123.105 10.5336 123.119 10.5397 123.135C10.5458 123.151 10.5485 123.168 10.5475 123.185C10.5411 123.448 10.5007 123.71 10.4273 123.963C10.3493 124.226 10.2426 124.48 10.1089 124.719C9.97688 124.954 9.82038 125.175 9.64205 125.377C9.4738 125.568 9.27548 125.731 9.0549 125.858C8.8708 125.976 8.6581 126.042 8.43945 126.049C8.27174 126.051 8.10877 125.993 7.97964 125.886C7.83961 125.762 7.73882 125.6 7.6896 125.42C7.61557 125.191 7.57506 124.953 7.56934 124.712C7.56934 124.514 7.56934 124.302 7.56934 124.076C7.56934 123.85 7.56934 123.616 7.56934 123.404C7.58011 123.123 7.61801 122.843 7.68252 122.569C7.75175 122.291 7.85139 122.02 7.97964 121.763C8.10184 121.509 8.25638 121.271 8.43945 121.056C8.6153 120.852 8.82315 120.677 9.0549 120.54C9.23281 120.431 9.43401 120.365 9.64205 120.349C9.80572 120.336 9.96915 120.376 10.1089 120.462C10.2522 120.556 10.3633 120.692 10.4273 120.851C10.5077 121.053 10.5485 121.27 10.5475 121.487C10.5468 121.534 10.5347 121.581 10.5122 121.622C10.4987 121.659 10.474 121.691 10.4414 121.714L9.8189 122.074C9.76231 122.074 9.72694 122.11 9.70572 122.074C9.67767 122.035 9.66058 121.988 9.6562 121.94C9.6562 121.891 9.6562 121.834 9.59961 121.777C9.57439 121.727 9.53809 121.684 9.4935 121.65C9.44228 121.62 9.38324 121.605 9.32372 121.608C9.22744 121.619 9.13522 121.653 9.0549 121.707C8.95025 121.762 8.85861 121.839 8.78608 121.933C8.71029 122.02 8.64826 122.117 8.60216 122.223C8.5532 122.329 8.51756 122.441 8.49605 122.555C8.47315 122.684 8.45897 122.814 8.4536 122.944Z" fill="#F5F7FA"/>
<path d="M12.5495 118.574C12.7174 118.465 12.9093 118.4 13.1084 118.383C13.2626 118.371 13.417 118.403 13.5541 118.475C13.6761 118.548 13.7763 118.653 13.8441 118.779C13.9148 118.912 13.9512 119.06 13.9502 119.21C13.9601 119.252 13.9601 119.296 13.9502 119.338C13.9382 119.376 13.9131 119.408 13.8795 119.429L13.2569 119.79C13.2198 119.8 13.1809 119.8 13.1438 119.79L13.0659 119.748L13.0164 119.698C12.9922 119.674 12.9634 119.655 12.9315 119.642C12.8826 119.63 12.8319 119.63 12.783 119.642C12.7089 119.649 12.638 119.676 12.5778 119.719C12.5162 119.755 12.4571 119.796 12.401 119.84C12.3465 119.881 12.2967 119.929 12.2524 119.981C12.2104 120.036 12.1748 120.095 12.1463 120.158C12.1203 120.223 12.1083 120.293 12.1109 120.363C12.104 120.418 12.1193 120.474 12.1534 120.519C12.1737 120.538 12.1984 120.553 12.2254 120.562C12.2524 120.57 12.281 120.572 12.309 120.568C12.4046 120.564 12.4995 120.55 12.592 120.526L13.0306 120.412C13.1797 120.369 13.335 120.349 13.4904 120.356C13.609 120.36 13.7231 120.402 13.8158 120.476C13.9114 120.566 13.98 120.681 14.0139 120.809C14.0615 120.991 14.0829 121.179 14.0775 121.367C14.0757 121.607 14.0375 121.846 13.9644 122.074C13.8916 122.321 13.7894 122.559 13.6602 122.782C13.5282 122.997 13.3689 123.194 13.1862 123.369C13.0116 123.545 12.8141 123.697 12.599 123.821C12.4195 123.936 12.2163 124.008 12.0048 124.033C11.8522 124.054 11.697 124.027 11.5603 123.956C11.4236 123.885 11.3121 123.774 11.2408 123.637C11.1686 123.485 11.13 123.318 11.1276 123.149C11.1302 123.103 11.1423 123.057 11.163 123.015C11.1746 122.981 11.1969 122.951 11.2267 122.93L11.8563 122.569C11.8871 122.547 11.9242 122.535 11.9624 122.534C11.9894 122.537 12.0146 122.55 12.0331 122.569L12.0968 122.626C12.1215 122.661 12.1559 122.688 12.1958 122.704C12.2489 122.719 12.3054 122.719 12.3585 122.704C12.4447 122.697 12.5277 122.668 12.599 122.619C12.7573 122.531 12.9005 122.419 13.0235 122.287C13.1312 122.18 13.1922 122.035 13.1933 121.884C13.1965 121.855 13.1924 121.827 13.1812 121.801C13.17 121.775 13.1522 121.752 13.1296 121.735C13.069 121.722 13.0063 121.722 12.9457 121.735C12.8379 121.747 12.7313 121.768 12.6273 121.799L12.1675 121.919C12.049 121.963 11.9208 121.974 11.7964 121.952C11.672 121.929 11.5559 121.874 11.4601 121.792C11.2803 121.537 11.1998 121.225 11.2337 120.915C11.234 120.692 11.2649 120.471 11.3257 120.257C11.3882 120.025 11.4785 119.802 11.5945 119.592C11.7132 119.379 11.8555 119.179 12.019 118.998C12.174 118.831 12.3527 118.688 12.5495 118.574Z" fill="#F5F7FA"/>
<path d="M15.9804 116.572C16.1497 116.468 16.3412 116.405 16.5393 116.388C16.6913 116.376 16.8436 116.408 16.9779 116.48C17.1058 116.549 17.2095 116.655 17.275 116.784C17.3433 116.918 17.3797 117.066 17.3811 117.216C17.3911 117.258 17.3911 117.301 17.3811 117.343C17.3649 117.379 17.3407 117.41 17.3104 117.435L16.6808 117.796C16.6463 117.807 16.6091 117.807 16.5747 117.796C16.5433 117.793 16.5136 117.781 16.4898 117.76L16.4473 117.711C16.4231 117.687 16.3943 117.667 16.3624 117.654C16.3136 117.643 16.2628 117.643 16.2139 117.654C16.1402 117.668 16.0703 117.697 16.0087 117.739C15.9456 117.773 15.8863 117.813 15.8319 117.859C15.7774 117.901 15.7276 117.949 15.6833 118.001C15.6395 118.054 15.6038 118.114 15.5772 118.178C15.549 118.242 15.5346 118.312 15.5348 118.383C15.5313 118.439 15.549 118.494 15.5843 118.538C15.6036 118.557 15.627 118.572 15.6528 118.58C15.6786 118.589 15.7059 118.592 15.7328 118.588C15.8308 118.585 15.9281 118.571 16.0229 118.545L16.4615 118.432C16.6074 118.385 16.7611 118.366 16.9142 118.376C17.0355 118.377 17.1529 118.419 17.2467 118.496C17.3387 118.585 17.4047 118.698 17.4377 118.821C17.4876 119.006 17.5114 119.196 17.5085 119.387C17.5045 119.627 17.4664 119.865 17.3953 120.094C17.2448 120.576 16.9775 121.013 16.6171 121.367C16.4407 121.542 16.2435 121.694 16.03 121.82C15.8485 121.93 15.6462 122.003 15.4357 122.032C15.2774 122.05 15.1174 122.02 14.9759 121.947C14.846 121.873 14.7404 121.762 14.6717 121.629C14.5954 121.48 14.5565 121.315 14.5585 121.148C14.5485 121.104 14.5485 121.058 14.5585 121.014C14.5747 120.98 14.5991 120.951 14.6293 120.929L15.2589 120.568C15.3013 120.568 15.3367 120.526 15.3579 120.568C15.3834 120.561 15.4103 120.561 15.4357 120.568L15.4923 120.632C15.5233 120.663 15.5591 120.689 15.5984 120.71C15.6516 120.725 15.708 120.725 15.7611 120.71C15.8464 120.698 15.9283 120.669 16.0017 120.625C16.1584 120.535 16.3013 120.423 16.4261 120.292C16.5338 120.186 16.5949 120.041 16.5959 119.889C16.5991 119.861 16.595 119.832 16.5838 119.806C16.5726 119.78 16.5549 119.758 16.5322 119.741C16.472 119.724 16.4085 119.724 16.3483 119.741C16.2405 119.752 16.1339 119.773 16.03 119.804L15.5701 119.917C15.4522 119.962 15.3244 119.975 15.2001 119.954C15.0757 119.932 14.9592 119.878 14.8627 119.797C14.6805 119.54 14.5976 119.226 14.6293 118.913C14.6326 118.69 14.6659 118.469 14.7283 118.255C14.7878 118.025 14.8782 117.804 14.9971 117.598C15.1132 117.381 15.2558 117.179 15.4216 116.997C15.5869 116.83 15.7751 116.687 15.9804 116.572Z" fill="#F5F7FA"/>
<path d="M17.8622 128.277L2.90746 136.926C2.79938 136.997 2.70926 137.092 2.6442 137.204C2.57914 137.316 2.54091 137.441 2.53253 137.57V145.915C2.53981 146.044 2.57757 146.17 2.64274 146.282C2.7079 146.394 2.79861 146.488 2.90746 146.558L4.38595 147.393C4.49611 147.447 4.61708 147.475 4.73966 147.475C4.86224 147.475 4.98321 147.447 5.09337 147.393L20.0552 138.779C20.1612 138.707 20.2494 138.611 20.3131 138.5C20.3768 138.388 20.4144 138.264 20.423 138.136V129.791C20.4157 129.661 20.378 129.536 20.3128 129.424C20.2476 129.312 20.1569 129.217 20.0481 129.147L18.5767 128.312C18.4673 128.255 18.3467 128.222 18.2233 128.216C18.0999 128.21 17.9767 128.231 17.8622 128.277Z" fill="#4CAF4F"/>
<path opacity="0.4" d="M17.8622 128.277L2.90746 136.926C2.79938 136.997 2.70926 137.092 2.6442 137.204C2.57914 137.316 2.54091 137.441 2.53253 137.57V145.915C2.53981 146.044 2.57757 146.17 2.64274 146.282C2.7079 146.394 2.79861 146.488 2.90746 146.558L4.38595 147.393C4.49611 147.447 4.61708 147.475 4.73966 147.475C4.86224 147.475 4.98321 147.447 5.09337 147.393L20.0552 138.779C20.1612 138.707 20.2494 138.611 20.3131 138.5C20.3768 138.388 20.4144 138.264 20.423 138.136V129.791C20.4157 129.661 20.378 129.536 20.3128 129.424C20.2476 129.312 20.1569 129.217 20.0481 129.147L18.5767 128.312C18.4673 128.255 18.3467 128.222 18.2233 128.216C18.0999 128.21 17.9767 128.231 17.8622 128.277Z" fill="#103E13"/>
<path d="M20.4509 129.684C20.4509 129.5 20.274 129.429 20.083 129.535L5.12828 138.156C5.01898 138.224 4.92889 138.319 4.86654 138.432L2.64526 137.159C2.70478 137.049 2.79268 136.956 2.89993 136.89L17.8546 128.277C17.9708 128.218 18.0993 128.187 18.2296 128.187C18.3599 128.187 18.4883 128.218 18.6045 128.277L20.083 129.146C20.1789 129.205 20.2613 129.283 20.3247 129.376C20.3882 129.468 20.4311 129.573 20.4509 129.684Z" fill="#4CAF4F"/>
<path d="M20.0905 129.535L5.12872 138.156C5.02092 138.225 4.93125 138.319 4.86724 138.43C4.80323 138.541 4.76675 138.665 4.76086 138.793V147.145C4.76086 147.378 4.92357 147.477 5.12872 147.357L20.0905 138.743C20.1977 138.672 20.2867 138.577 20.3505 138.465C20.4144 138.353 20.4513 138.228 20.4584 138.1V129.755C20.4584 129.514 20.331 129.422 20.0905 129.535Z" fill="#4CAF4F"/>
<g opacity="0.2">
<path opacity="0.2" d="M20.0905 129.535L5.12872 138.156C5.02092 138.225 4.93125 138.319 4.86724 138.43C4.80323 138.541 4.76675 138.665 4.76086 138.793V147.145C4.76086 147.378 4.92357 147.477 5.12872 147.357L20.0905 138.743C20.1977 138.672 20.2867 138.577 20.3505 138.465C20.4144 138.353 20.4513 138.228 20.4584 138.1V129.755C20.4584 129.514 20.331 129.422 20.0905 129.535Z" fill="#103E13"/>
</g>
<path d="M8.52426 138.298C8.5302 138.292 8.53734 138.287 8.54524 138.283C8.55314 138.28 8.56165 138.278 8.57024 138.278C8.57883 138.278 8.58734 138.28 8.59524 138.283C8.60314 138.287 8.61028 138.292 8.61622 138.298C8.63122 138.312 8.6428 138.33 8.65014 138.35C8.65748 138.369 8.66039 138.39 8.65866 138.411V143.163C8.65702 143.22 8.6425 143.276 8.61622 143.326C8.59759 143.37 8.56538 143.407 8.52426 143.432L7.90173 143.793C7.89579 143.799 7.88865 143.804 7.88075 143.807C7.87285 143.811 7.86435 143.812 7.85575 143.812C7.84716 143.812 7.83866 143.811 7.83075 143.807C7.82285 143.804 7.81571 143.799 7.80977 143.793C7.80977 143.793 7.80977 143.736 7.80977 143.68V141.876L6.74865 142.491V144.288C6.749 144.345 6.73437 144.401 6.70621 144.45C6.68952 144.496 6.66002 144.535 6.62132 144.564L5.99172 144.924C5.97891 144.935 5.9626 144.941 5.94574 144.941C5.92888 144.941 5.91257 144.935 5.89976 144.924C5.88571 144.885 5.88571 144.843 5.89976 144.804V140.052C5.88993 139.998 5.88993 139.943 5.89976 139.889C5.92078 139.844 5.95234 139.806 5.99172 139.776L6.62132 139.415C6.63356 139.406 6.64846 139.401 6.66376 139.401C6.67907 139.401 6.69396 139.406 6.70621 139.415C6.72138 139.431 6.733 139.45 6.74031 139.471C6.74763 139.491 6.75047 139.513 6.74865 139.535V141.303L7.80977 140.695V138.92C7.79713 138.867 7.79713 138.811 7.80977 138.757C7.83076 138.715 7.86244 138.678 7.90173 138.651L8.52426 138.298Z" fill="#F5F7FA"/>
<path d="M12.0189 136.282C12.0249 136.276 12.032 136.271 12.0399 136.268C12.0478 136.264 12.0563 136.263 12.0649 136.263C12.0735 136.263 12.082 136.264 12.0899 136.268C12.0978 136.271 12.105 136.276 12.1109 136.282C12.1244 136.319 12.1244 136.359 12.1109 136.395V137.173C12.1216 137.227 12.1216 137.282 12.1109 137.336C12.0919 137.382 12.06 137.421 12.0189 137.449L11.1771 137.937V141.706C11.1741 141.765 11.1597 141.823 11.1347 141.876C11.1136 141.921 11.0821 141.96 11.0427 141.989L10.4131 142.35C10.3994 142.359 10.3834 142.364 10.3671 142.364C10.3508 142.364 10.3349 142.359 10.3211 142.35C10.3077 142.311 10.3077 142.269 10.3211 142.23V138.46L9.47932 138.941C9.46651 138.952 9.45021 138.958 9.43334 138.958C9.41648 138.958 9.40017 138.952 9.38736 138.941C9.36331 138.906 9.35094 138.864 9.35199 138.821V138.043C9.35273 137.987 9.36476 137.932 9.38736 137.88C9.40633 137.835 9.43829 137.795 9.47932 137.767L12.0189 136.282Z" fill="#F5F7FA"/>
<path d="M14.2119 138.864C14.1863 138.839 14.1648 138.81 14.1483 138.779L13.6955 137.824V140.257C13.6974 140.313 13.6853 140.369 13.6601 140.419C13.6412 140.465 13.6092 140.505 13.5682 140.533L12.9457 140.893C12.9328 140.904 12.9165 140.91 12.8997 140.91C12.8828 140.91 12.8665 140.904 12.8537 140.893C12.8457 140.874 12.8416 140.854 12.8416 140.833C12.8416 140.812 12.8457 140.792 12.8537 140.773V136.028C12.8405 135.974 12.8405 135.918 12.8537 135.865C12.8727 135.819 12.9046 135.78 12.9457 135.752L13.4974 135.434C13.5611 135.434 13.6106 135.434 13.6389 135.434C13.6635 135.456 13.685 135.483 13.7026 135.511L14.4808 137.103L15.2518 134.62C15.2681 134.566 15.2894 134.514 15.3155 134.465C15.3423 134.396 15.3923 134.338 15.457 134.302L16.0088 133.984C16.0147 133.978 16.0218 133.973 16.0297 133.969C16.0376 133.966 16.0462 133.964 16.0547 133.964C16.0633 133.964 16.0718 133.966 16.0797 133.969C16.0876 133.973 16.0948 133.978 16.1007 133.984C16.109 134.001 16.1132 134.021 16.1132 134.04C16.1132 134.06 16.109 134.079 16.1007 134.097V138.849C16.1139 138.903 16.1139 138.959 16.1007 139.012C16.0797 139.057 16.0481 139.095 16.0088 139.125L15.3862 139.486C15.3725 139.495 15.3566 139.499 15.3403 139.499C15.3239 139.499 15.308 139.495 15.2943 139.486C15.2863 139.467 15.2822 139.446 15.2822 139.426C15.2822 139.405 15.2863 139.385 15.2943 139.366V136.926L14.8415 138.397C14.8241 138.452 14.8028 138.507 14.7779 138.559C14.7541 138.612 14.7146 138.657 14.6647 138.687L14.3605 138.856C14.2756 138.885 14.2402 138.892 14.2119 138.864Z" fill="#F5F7FA"/>
<path d="M19.3902 135.999C19.3902 135.999 19.4539 135.999 19.4751 135.999C19.4901 136.014 19.5017 136.032 19.509 136.051C19.5163 136.071 19.5192 136.092 19.5175 136.112V136.926C19.5179 136.983 19.5032 137.039 19.4751 137.088C19.4606 137.135 19.4306 137.175 19.3902 137.202L17.176 138.475C17.1632 138.485 17.1469 138.491 17.13 138.491C17.1131 138.491 17.0968 138.485 17.084 138.475C17.0705 138.436 17.0705 138.393 17.084 138.354V133.602C17.0743 133.55 17.0743 133.498 17.084 133.446C17.103 133.4 17.1349 133.361 17.176 133.333L17.7985 132.972C17.8044 132.966 17.8116 132.961 17.8195 132.958C17.8274 132.955 17.8359 132.953 17.8445 132.953C17.8531 132.953 17.8616 132.955 17.8695 132.958C17.8774 132.961 17.8845 132.966 17.8905 132.972C17.9055 132.987 17.917 133.005 17.9244 133.024C17.9317 133.044 17.9346 133.065 17.9329 133.086V136.862L19.3902 135.999Z" fill="#F5F7FA"/>
<path d="M17.8622 145.624L2.90746 154.238C2.79861 154.308 2.7079 154.403 2.64274 154.515C2.57757 154.627 2.53981 154.753 2.53253 154.882V163.227C2.53981 163.356 2.57757 163.482 2.64274 163.594C2.7079 163.706 2.79861 163.8 2.90746 163.871L4.38595 164.705C4.49668 164.757 4.61742 164.784 4.73966 164.784C4.8619 164.784 4.98264 164.757 5.09337 164.705L20.0905 156.091C20.1965 156.019 20.2847 155.923 20.3484 155.812C20.4122 155.7 20.4498 155.576 20.4584 155.448V147.103C20.4511 146.973 20.4133 146.848 20.3482 146.736C20.283 146.624 20.1923 146.529 20.0835 146.459L18.612 145.624C18.4959 145.565 18.3674 145.535 18.2371 145.535C18.1068 145.535 17.9783 145.565 17.8622 145.624Z" fill="#4CAF4F"/>
<path opacity="0.4" d="M17.8622 145.624L2.90746 154.238C2.79861 154.308 2.7079 154.403 2.64274 154.515C2.57757 154.627 2.53981 154.753 2.53253 154.882V163.227C2.53981 163.356 2.57757 163.482 2.64274 163.594C2.7079 163.706 2.79861 163.8 2.90746 163.871L4.38595 164.705C4.49668 164.757 4.61742 164.784 4.73966 164.784C4.8619 164.784 4.98264 164.757 5.09337 164.705L20.0905 156.091C20.1965 156.019 20.2847 155.923 20.3484 155.812C20.4122 155.7 20.4498 155.576 20.4584 155.448V147.103C20.4511 146.973 20.4133 146.848 20.3482 146.736C20.283 146.624 20.1923 146.529 20.0835 146.459L18.612 145.624C18.4959 145.565 18.3674 145.535 18.2371 145.535C18.1068 145.535 17.9783 145.565 17.8622 145.624Z" fill="#103E13"/>
<path d="M20.4509 147.032C20.4509 146.848 20.274 146.777 20.083 146.883L5.12828 155.497C5.02049 155.57 4.93094 155.667 4.86654 155.78L2.64526 154.5C2.70729 154.393 2.79477 154.303 2.89993 154.238L17.8617 145.625C17.9784 145.567 18.1066 145.537 18.2367 145.537C18.3667 145.537 18.4949 145.567 18.6116 145.625L20.083 146.466C20.1822 146.528 20.2666 146.61 20.3302 146.708C20.3938 146.806 20.435 146.916 20.4509 147.032Z" fill="#4CAF4F"/>
<path d="M20.0905 146.883L5.12872 155.497C5.02157 155.568 4.93253 155.664 4.86867 155.775C4.80482 155.887 4.7679 156.012 4.76086 156.141V164.507C4.76086 164.748 4.92357 164.839 5.12872 164.726L20.0905 156.091C20.1977 156.02 20.2867 155.925 20.3505 155.813C20.4144 155.701 20.4513 155.576 20.4584 155.448V147.103C20.4584 146.862 20.331 146.77 20.0905 146.883Z" fill="#4CAF4F"/>
<g opacity="0.2">
<path opacity="0.2" d="M20.0905 146.883L5.12872 155.497C5.02157 155.568 4.93253 155.664 4.86867 155.775C4.80482 155.887 4.7679 156.012 4.76086 156.141V164.507C4.76086 164.748 4.92357 164.839 5.12872 164.726L20.0905 156.091C20.1977 156.02 20.2867 155.925 20.3505 155.813C20.4144 155.701 20.4513 155.576 20.4584 155.448V147.103C20.4584 146.862 20.331 146.77 20.0905 146.883Z" fill="#103E13"/>
</g>
<path d="M8.74361 157.47C8.74361 157.534 8.74361 157.626 8.74361 157.739V158.446C8.74361 158.566 8.74361 158.651 8.74361 158.715C8.7498 158.815 8.76399 158.914 8.78606 159.012C8.8068 159.089 8.8429 159.161 8.89217 159.224C8.94165 159.273 9.00674 159.303 9.0761 159.309C9.1722 159.302 9.26487 159.271 9.34492 159.217C9.44556 159.162 9.53638 159.09 9.61373 159.005C9.67946 158.93 9.73863 158.85 9.79059 158.764C9.83132 158.685 9.86448 158.602 9.88963 158.517C9.88963 158.432 9.93207 158.361 9.94622 158.291C9.9574 158.226 9.97396 158.162 9.99574 158.1C10.0199 158.051 10.0597 158.011 10.1089 157.987L10.7314 157.626C10.7426 157.617 10.7563 157.613 10.7704 157.613C10.7844 157.613 10.7981 157.617 10.8093 157.626C10.8093 157.626 10.8093 157.675 10.8093 157.718C10.8063 157.982 10.7658 158.243 10.689 158.496C10.6135 158.759 10.5091 159.012 10.3777 159.252C10.245 159.487 10.086 159.705 9.90377 159.903C9.7375 160.096 9.53881 160.259 9.31662 160.384C9.13498 160.503 8.92501 160.571 8.70824 160.582C8.54053 160.584 8.37756 160.526 8.24843 160.419C8.10848 160.294 8.0057 160.132 7.95131 159.953C7.8785 159.724 7.83802 159.486 7.83105 159.245C7.83105 159.047 7.83105 158.835 7.83105 158.602C7.83105 158.368 7.83105 158.149 7.83105 157.937C7.84032 157.655 7.88065 157.375 7.95131 157.103C8.03893 156.824 8.15757 156.556 8.30502 156.303C8.42809 156.049 8.58257 155.812 8.76484 155.596C8.94068 155.392 9.14854 155.218 9.38029 155.08C9.5582 154.971 9.75939 154.905 9.96744 154.889C10.1336 154.873 10.3004 154.913 10.4414 155.002C10.5827 155.097 10.6913 155.233 10.7527 155.391C10.8366 155.593 10.8775 155.809 10.8729 156.028C10.883 156.072 10.883 156.118 10.8729 156.162C10.8547 156.198 10.828 156.23 10.7951 156.254L10.1726 156.615C10.116 156.615 10.0806 156.615 10.0594 156.615C10.0346 156.573 10.0178 156.528 10.0099 156.48C10.0099 156.431 10.0099 156.374 9.95329 156.318C9.93451 156.266 9.89985 156.221 9.85425 156.19C9.80013 156.161 9.73908 156.146 9.6774 156.148C9.58221 156.159 9.49052 156.19 9.40858 156.24C9.30702 156.3 9.21617 156.376 9.13977 156.466C9.06779 156.558 9.00611 156.658 8.95584 156.763C8.91204 156.871 8.87657 156.982 8.84973 157.095C8.80599 157.218 8.77054 157.343 8.74361 157.47Z" fill="#F5F7FA"/>
<path d="M13.1296 156.494V157.704C13.1394 157.757 13.1394 157.813 13.1296 157.866C13.1106 157.912 13.0786 157.952 13.0376 157.98L12.4363 158.326C12.4235 158.337 12.4072 158.343 12.3903 158.343C12.3734 158.343 12.3571 158.337 12.3443 158.326C12.3363 158.307 12.3322 158.287 12.3322 158.266C12.3322 158.245 12.3363 158.225 12.3443 158.206V156.997L11.6369 157.421C11.631 157.427 11.6238 157.432 11.6159 157.435C11.608 157.439 11.5995 157.44 11.5909 157.44C11.5823 157.44 11.5738 157.439 11.5659 157.435C11.558 157.432 11.5509 157.427 11.5449 157.421C11.5314 157.384 11.5314 157.344 11.5449 157.308V156.565C11.5343 156.511 11.5343 156.456 11.5449 156.402C11.5639 156.357 11.5959 156.317 11.6369 156.289L12.3443 155.865V154.606C12.3317 154.553 12.3317 154.497 12.3443 154.443C12.3634 154.4 12.3955 154.362 12.4363 154.337L13.0376 153.984C13.0513 153.975 13.0673 153.97 13.0836 153.97C13.0999 153.97 13.1158 153.975 13.1296 153.984C13.143 154.023 13.143 154.065 13.1296 154.104V155.313L13.837 154.889C13.8507 154.88 13.8666 154.875 13.883 154.875C13.8993 154.875 13.9152 154.88 13.9289 154.889C13.9428 154.906 13.9532 154.925 13.9593 154.945C13.9654 154.966 13.9671 154.988 13.9643 155.009V155.752C13.9662 155.808 13.954 155.864 13.9289 155.914C13.9079 155.959 13.8764 155.998 13.837 156.028L13.1296 156.494Z" fill="#F5F7FA"/>
<path d="M16.2987 154.663V155.879C16.2971 155.936 16.2826 155.991 16.2563 156.042C16.2375 156.084 16.2083 156.12 16.1714 156.148L15.563 156.494C15.5577 156.5 15.5512 156.505 15.5439 156.508C15.5365 156.512 15.5286 156.514 15.5206 156.514C15.5125 156.514 15.5046 156.512 15.4973 156.508C15.49 156.505 15.4834 156.5 15.4781 156.494C15.4631 156.48 15.4515 156.462 15.4442 156.443C15.4369 156.423 15.434 156.402 15.4357 156.381V155.165L14.7283 155.596C14.7155 155.607 14.6991 155.613 14.6823 155.613C14.6654 155.613 14.6491 155.607 14.6363 155.596C14.6211 155.58 14.6095 155.561 14.6022 155.541C14.5949 155.52 14.592 155.498 14.5939 155.476V154.733C14.5955 154.677 14.61 154.621 14.6363 154.571C14.653 154.525 14.6857 154.488 14.7283 154.465L15.4357 154.033V152.824C15.4353 152.767 15.45 152.711 15.4781 152.661C15.4948 152.616 15.5243 152.577 15.563 152.548L16.1714 152.202C16.1767 152.196 16.1832 152.191 16.1906 152.187C16.1979 152.184 16.2058 152.182 16.2138 152.182C16.2219 152.182 16.2298 152.184 16.2371 152.187C16.2444 152.191 16.251 152.196 16.2563 152.202C16.2713 152.216 16.2829 152.234 16.2902 152.253C16.2975 152.273 16.3005 152.294 16.2987 152.315V153.531L17.0061 153.107C17.0121 153.101 17.0192 153.096 17.0271 153.092C17.035 153.089 17.0435 153.087 17.0521 153.087C17.0607 153.087 17.0692 153.089 17.0771 153.092C17.085 153.096 17.0922 153.101 17.0981 153.107C17.1121 153.146 17.1121 153.188 17.0981 153.227V153.934C17.1079 153.986 17.1079 154.038 17.0981 154.09C17.0791 154.136 17.0472 154.175 17.0061 154.203L16.2987 154.663Z" fill="#F5F7FA"/>
</svg>
